<?xml version="1.0" encoding="utf-8"?>
<!-- Generator: Adobe Illustrator 22.0.1, SVG Export Plug-In . SVG Version: 6.00 Build 0)  -->
<svg version="1.1" id="Layer_1" xmlns="http://www.w3.org/2000/svg" xmlns:xlink="http://www.w3.org/1999/xlink" x="0px" y="0px"
	 viewBox="0 0 522.9 151.9" style="enable-background:new 0 0 522.9 151.9;" xml:space="preserve">
<path d="M75.5,75.9c-1.4,0.4-2.8-0.5-4.1,1c-0.2-0.5-0.3-0.8-0.3-1.1c-0.1-0.6-0.1-1.1-1-1.4c0.4-0.1,0.7-0.2,1-0.3
	c0-0.1,0-0.1,0-0.2c-0.3,0-0.7,0-1.2,0c0.3-0.2,0.4-0.4,0.6-0.5c0-0.1,0-0.1-0.1-0.2c-0.3,0-0.5,0.1-0.8,0.1
	c-0.1-0.5-0.9-0.7-0.4-1.4c0.2-0.4,0.3-0.4,0.6-0.2c0.3,0.1,0.5,0.2,0.8,0.3c-0.1-0.5-0.2-0.8-0.2-1.2c0-0.1,0.3-0.2,0.4-0.3
	c0.1-0.1,0.3-0.1,0.3-0.1c0.6,0.4,0.8,0.1,0.9-0.5c0.2-0.9,1-0.6,1.7-0.8c0.4-0.1,0.8-0.2,1.2-0.4c0.8-0.5,1.5-1.1,2.3-1.6
	c1.8-1.3,3.6-2.6,5.7-4c-0.8-0.3-1-0.7-0.7-1.2c0.4-0.1,0.7-0.1,1.1-0.2c0-0.1,0-0.1,0-0.2c-0.7-0.1-1.4-0.2-2.1-0.2
	c-0.9-0.1-1.5-0.7-2.2-1.2c-0.4-0.3-0.6-0.9-1.2-1c-0.4-0.1-0.5-0.5-0.4-0.9c0.2-0.6,0.3-1.1-0.4-1.6c-0.1,0.4-0.2,0.7-0.3,1.2
	c-0.3-1.1-0.3-2,0.1-2.9c0.4-0.8,0.6-1.6,1-2.4c0.1-0.3,0.3-0.5,0.5-0.7c0.2-0.2,0.5-0.4,0.7-0.7c1.3-2.1,3.3-3.2,5.6-3.8
	c2.2-0.5,4.4-0.6,6.7-0.4c0.7,0.1,1.4,0.2,2.1,0.3c0.3,0.1,0.6,0.3,0.8,0.4c0.7,0.5,1.4,1,2,1.6c0.2,0.2,0.2,0.5,0.4,0.7
	c0.3,0.3,0.6,0.5,0.9,0.8c-0.1,0.9,0.1,1.4,0.9,1.5c0.4,0,0.8-0.1,1.1-0.3c1-0.6,2-1.3,3.1-1.9c0.3-0.2,0.7-0.3,1-0.4
	c2.5-0.6,4.5-2.1,6.6-3.3c1.3-0.7,2.7-1.3,4-1.7c1.9-0.6,3.8-1.1,5.8-1.5c0.6-0.1,0.9-0.4,1-0.9c0.1-1.1,0-2.2,0.4-3.2
	c0.3-0.8-0.4-1.8,0.5-2.2c0-0.6-0.1-1.1,0-1.5c0.1-0.7-0.1-1.2-0.9-1.4c-0.9-0.2-1.3-0.8-1.7-1.4c-0.1-0.1,0-0.3,0-0.4
	c0-0.4,0.1-0.9,0.1-1.4c0,0,0.3-0.1,0.3-0.3c0.3-0.9,1.1-1.1,2-1.3c1-0.2,1.2-0.7,0.6-1.6c-0.4-0.5-0.1-1.1,0.4-1.4
	c0.7-0.4,1.4-0.4,2.1-0.4c1.1,0,2.3-0.1,3.4-0.1c0.5,0,0.9,0,1.3,0.1c0.2,0,0.4,0.4,0.3,0.6c-0.1,0.5-0.3,1-0.5,1.6
	c0.2,0,0.6,0.1,0.9,0.1c1.3-0.1,2.6-0.2,3.9-0.2c0.5,0,1.2,0.4,1.5,0.8c0.5,0.6,1.3,1.2,1.5,2.1c0,0.1,0.1,0.1,0.1,0.2
	c0.8,0.9,0.7,1.3-0.2,2c0,0,0,0.1,0,0.1c0.4,0.2,0.8,0.3,1.5,0.6c-0.8,0.9-1.6,1.5-2.1,2.4c-0.3,0.4-0.5,0.6-1,0.6
	c-0.1,0-0.2,0.2-0.3,0.4c-0.4,0.5-1,0.7-1.3,0.5c-0.4,0.2-0.8,0.3-1.1,0.5c0,0,0,0.1,0,0.1c0.4,0,0.8,0,1.3,0
	c-0.2,0.7-0.4,1.2-1.2,1.3c0.1-0.3,0.2-0.5,0.3-0.8c-0.6,0.1-1.1-0.3-1.6,0.2c-0.1,0.1-0.3,0-0.5,0c-1.2-0.5-1.9-0.2-2,1.1
	c0,1,0,2,0.3,2.9c0.2,0.5,0.4,1.2,1.2,1.5c0.6,0.2,1.1,0.9,1.6,1.4c0.2,0.2,0.4,0.5,0.6,0.7c0.2,0.3,0.3,0.5,0.4,0.8
	c0.7,0.6,1.1,1.3,1.4,2.1c0.4,1,0.7,2,1,3c0.1,0.4,0.1,0.9,0.2,1.3c0.1,0.4,0.2,0.8,0.4,1.3c-0.3,0.2-0.6,0.4-0.9,0.6
	c0.9,0.2,0.9,0.2,0.5,1.1c-0.1,0.1,0,0.3,0,0.4c0.1,1,0.1,2,0.2,3c0.1,0.9,0.3,1.8,0.3,2.7c0,1.5-0.1,3.1-0.2,4.6
	c0,0.4,0.2,0.8,0.1,1.2c-0.2,1.2-0.4,2.3-0.7,3.5c-0.1,0.2-0.4,0.4-0.5,0.6c0.1,0.4,0.2,0.8,0.2,1.2c0,0.1-0.1,0.3-0.2,0.4
	c-0.8,0.5-0.9,1.4-1.3,2.2c-0.1,0.1-0.1,0.4-0.2,0.4c-0.8,0.3-0.8,1-0.7,1.5c0.2,0.9-0.3,1.5-0.7,1.9c-0.9,0.9-2,1.6-3.1,2.3
	c-0.8,0.5-1.8,0.9-2.8,1.5c0.3,0.1,0.6,0.2,1,0.4c-0.6,0.6-1.3,1.2-2,1.3c-0.9,0.1-1.8,0.1-2.5,0.9c-0.1,0.1-0.2,0.1-0.3,0.1
	c-1.2-0.1-2.2,0.4-3.1,1c-0.1,0.1-0.3,0.1-0.4,0c-0.5-0.1-0.7,0.1-1,0.4c-0.3,0.2-0.7,0.4-1.1,0.5c-1,0.2-1.9-0.2-2.9-0.3
	c-0.4-0.1-0.8,0.2-1.2,0.3c-0.4,0.1-0.9,0.1-1.3,0.2c-0.5,0.1-0.8-0.1-1.1-0.4c-0.4-0.3-1.1-0.3-1.6-0.4c-0.5-0.1-0.9-0.2-1.4-0.4
	c-0.2-0.1-0.5-0.1-0.7-0.2c-0.4-1.1,0.5-3,1.6-3.2c0-0.1-0.1-0.3,0-0.4c0.4-0.6,0.6-1.3,0.6-2.1c0-0.1,0.1-0.2,0.1-0.2
	c1-0.6,1.7-1.7,3.1-1.4c0.6,0.2,1.4,0.4,1.8,0.9c0.8,0.8,1.7,0.7,2.6,0.8c1.8,0.1,3.3-0.7,4.6-1.7c1-0.8,1.8-1.9,2.5-3
	c0.2-0.3,0-0.8,0.1-1.2c0-0.2,0-0.5,0.1-0.7c0.4-0.6,0.8-1.2,1.2-1.9c0.1-0.1,0.2-0.3,0.1-0.5c-0.2-1.3,0.2-2.6,0.7-3.8
	c0-0.1,0.1-0.1,0.1-0.2c-0.2-0.9-0.4-1.8-0.6-2.7c-0.1-0.5-0.2-1.1-0.2-1.7c-0.5-0.1-0.5-0.5-0.3-1.1c0.1-0.4,0.2-0.9-0.5-0.8
	c-0.1,0-0.3-0.1-0.3-0.2c-0.3-0.8-0.6-1.7-0.9-2.5c0-0.1,0.1-0.2,0.2-0.2c-0.6-0.3-1.1-0.6-1.6-0.9c0-0.3,0-0.6,0-0.9
	c-0.3,0-0.6,0-1,0c0-0.2,0.1-0.4,0.1-0.7c-0.1,0-0.2,0-0.3,0c-0.3,0-0.7,0.1-0.7-0.4c0-0.1-0.1-0.1-0.1-0.2
	c-0.6-0.2-1.3-0.4-1.9-0.7c-0.3-0.1-0.5-0.2-0.7-0.4c-0.6-0.5-1.2-0.4-1.9-0.4c0,0-0.1,0-0.1,0c-0.4-0.1-0.9-0.3-1.3-0.2
	c-0.4,0.1-0.7,0.5-1.2,0.8c0-0.3,0-0.5,0-0.9c-0.2,0.1-0.4,0.2-0.6,0.3c-0.4,0.4-0.8,0.8-1.3,1.1c-0.3,0.1-0.7,0.5-0.8-0.3
	c0,0-0.4-0.1-0.5,0c-0.2,0.1-0.2,0.4-0.3,0.6c-0.2,0.3-0.4,0.6-0.6,0c-0.6,0.8-1.3,1.6-2.3,1.8c-0.2,0-0.4,0.2-0.4,0.4
	c0,0.2,0.1,0.4,0.3,0.5c2.1,1.4,3.5,3.3,4.3,5.6c0.3,0.9,0.7,1.8,0.9,2.7c0.2,0.9,0.2,1.9-0.3,2.8c-0.1,0.2-0.1,0.5-0.1,0.8
	c-0.1,0.4-0.1,0.9-0.2,1.3c-0.1,0.5-0.6,1,0,1.5c0,0,0,0.1,0,0.2c-0.2,1-0.3,2-0.5,2.9c0,0.2-0.1,0.3-0.2,0.4
	c-0.3,0.2-0.4,0.3-0.2,0.8c0.1,0.2-0.3,0.7-0.5,1.1c-0.1,0.2-0.3,0.5-0.5,0.6c-0.3,0.2-0.6,0.4-1,0.6c-0.4,0.2-0.8,0.3-1.2,0.5
	c0.1,0.1,0.1,0.2,0.2,0.3c0.3-0.2,0.6-0.3,1-0.5c-0.1,0.1-0.1,0.3-0.2,0.5c0.3,0,0.5,0,0.7,0c0,0,0,0.1,0.1,0.1
	c-0.2,0.1-0.4,0.3-0.6,0.3c-0.6,0.1-1.2,0.5-1.7,0.7c-0.8,0.3-1,0.9-1.5,1.4c-0.1,0.1-0.3,0.2-0.5,0.4c-0.5,0.3-1.4,0.2-1.4,1.2
	c0,0.2-0.7,0.5-0.9,0.4c-0.4-0.2-0.5,0-0.7,0.2c-0.2,0.2-0.3,0.5-0.8,0.2c-0.2-0.1-0.6,0.3-0.9,0.5c-1.1,0.1-1.9,0.9-2.9,1.3
	c0.2-0.3,0.2-0.5,0.3-0.7c-0.2-0.1-0.4-0.3-0.5-0.3c-0.4,0.1-1.1,0.1-1,0.9c0.2-0.1,0.4-0.1,0.6-0.2c0,0.1,0,0.1,0,0.2
	c-1.2,0.1-2.3,0.3-3.6,0.5c0.2-0.3,0.3-0.5,0.5-0.7c-0.1,0-0.3-0.1-0.3-0.1c-0.6,0.8-1.3,0.3-1.9,0.2c-1-0.1-2-0.6-3-0.2
	c-0.4,0.2-0.7-0.1-0.7-0.6c-0.6-0.1-1.2-0.3-1.8-0.4c-0.9-0.2-1.2-0.6-1.2-1.6c0-0.2-0.1-0.4-0.1-0.8c-0.3,0.3-0.5,0.4-0.6,0.6
	c-0.5-0.2-1-0.4-1.4-0.7c-0.3-0.2-0.5-0.4-0.7-0.7c-0.1-0.1-0.1-0.3-0.2-0.3c-1.1-0.2-1.1-1.3-1.7-2c-0.4-0.4-0.7-1-1.2-1.5
	c-0.6-0.6-1.3-1.1-1.9-1.8C75.3,77,75.5,76.5,75.5,75.9z M81,72.6c-0.3,0.5-0.5,1-0.8,1.3c-0.6,0.6,0,0.9,0.3,1.2c0,0,0.1,0.1,0,0.2
	c-0.3,1.1,0.8,1.3,1.2,2c0.3,0.7,1.1,1.1,1.7,1.7c0.1,0,0.4,0.1,0.7,0.2c0.8,0.2,1.5,0.9,2.5,0.4c0.4-0.2,0.8,0.4,0.6,0.9
	c0.4,0,0.8,0.1,1.1,0c0.8-0.3,1.5-0.2,2.3-0.2c0.6,0.1,1.3,0.1,1.9,0c0.9-0.2,1.7-0.4,2.6-0.7c1.4-0.6,2.8-1.3,4.2-2
	c0.3-0.1,0.7-0.2,0.8-0.5c0.3-0.8,1-1.2,1.6-1.6c0.5-0.3,0.5-0.5,0-0.9c0.2-0.4,0.5-0.7,0.7-1c0-0.1-0.1-0.3-0.1-0.5
	c0.1-0.8,0.2-1.6,0.4-2.4c0.1-0.4,0.1-0.7-0.4-0.8c0.1-0.2,0.2-0.5,0.4-0.8c-0.3,0.1-0.5,0.1-0.9,0.2c0.3-0.5,0.5-0.8,0.6-1
	c-0.3-0.4-0.7-0.8-1-1.3c0,0-0.2,0.1-0.4,0.1c0.5-1.3-0.7-1.3-1.2-1.8c-0.2-0.2-0.7,0-1,0c-0.4-0.2-0.7-0.5-1.3-0.2
	C96.1,65.9,95,66.9,94,68c-0.5,0.6-1.1,0.5-1.6,0.4c-0.4,0-0.6-0.3-0.2-0.7c0.4-0.3,0.3-0.5,0-0.8c-0.1-0.1-0.2-0.3-0.2-0.4
	c-0.3-0.9-1.2-1.3-1.9-0.7c-0.2,0.2-0.4,0.4-0.8,0.6c0,0,0.1,0.2,0.1,0.3c-0.6,0.2-1.2,0.5-1.8,0.7c-0.1,0-0.2,0-0.4,0
	c-0.8,0.2-1.6,0.4-1.8,1.4c0,0.1-0.1,0.2-0.3,0.3c-0.9,0.8-2.1,1.3-2.8,2.4c0,0-0.1,0.1-0.2,0.1c-0.5,0.2-1,0.4-1.7,0.6
	C80.8,72.5,80.9,72.6,81,72.6z M89,56.1c0.4-0.1,0.8-0.2,1-0.1c1.8,0.8,3.1-0.1,4.4-1.3c-0.6-0.8-1.1-1.9-2.5-1.3
	c0-0.3,0.1-0.5,0.1-0.8c-1.5-0.2-2.6,0.8-4,1.3C88.8,54.5,90.1,54.7,89,56.1z M131.5,32.8c0-0.1-0.1-0.1-0.1-0.2
	c-0.9,0.1-1.7,0.2-2.6,0.3c0.1,0.3,0.2,0.6,0.3,0.9c0.3-0.1,0.6-0.2,0.9-0.3c0.6-0.1,1.2-0.1,1.8-0.1c0.6-0.1,0.8-0.3,0.5-0.7
	c-0.3,0.2-0.6,0.3-1,0.5c0,0,0-0.1-0.1-0.1C131.3,33,131.4,32.9,131.5,32.8z"/>
<path d="M192.3,61.5c-0.4-0.5-0.9-0.9-1.1-1.3c-0.2-0.6-0.5-0.9-1.2-0.8c0.4-0.2,0.7-0.4,1-0.5c-0.4-0.3-0.7-0.5-1-0.7
	c-0.2-0.1-0.6-0.1-0.8,0c-0.4,0.2-0.7,0.2-1-0.3c-0.2-0.4-0.2-0.8,0.2-1.1c0.2-0.2,0.4-0.4,0.7-0.7c-0.7-0.2-1.2-0.3-1.7-0.5
	c-0.2-0.1-0.4-0.3-0.4-0.6c-0.1-0.6-0.4-0.6-0.8-0.4c0.1,0.2,0.2,0.4,0.4,0.8c-0.4-0.1-0.7-0.1-0.9-0.2c0-0.6-0.3-0.9-0.9-0.9
	c-0.2,0-0.5-0.2-0.7-0.3c-0.2-0.1-0.4-0.2-0.6-0.1c-0.9,0.1-1,0-0.7-1c-0.8,0.1-1.6,1.1-2.3-0.1c-0.2,0.2-0.3,0.4-0.4,0.5
	c-0.4-0.2-0.9-0.7-1,0.3c0,0-0.1,0.1-0.2,0.1c-0.7,0.1-1.3,0.2-2,0.3c-0.6,0.1-1.2,0.1-1.7,0.2c-1,0.2-1.2-0.3-1.5-0.9
	c-0.4,0.9-0.7,1.9-1.1,2.8c-1.1-0.8-1.9-0.7-2.8,0.3c-0.2,0.2-0.5,0.4-0.7,0.5c-0.6,0.1-0.8,0.5-0.7,0.8c1.3,0.4,2.6,0.6,3.8,1.1
	c1,0.4,1.8,1.1,2.7,1.8c0.8,0.6,1.5,1.3,2.2,2c0.1,0.1,0.2,0.3,0.3,0.4c0.6,1.3,1.3,2.6,1.8,4c0.4,1.1,0.4,2.3,0.5,3.4
	c0.1,1.1,0.1,2.2,0.1,3.3c0,0.8,0,1.6-0.1,2.4c0,0.3-0.1,0.8-0.7,0.8c-0.5,0-1.3,1.6-1.1,2.1c-0.3,0.1-0.7,0.2-1,0.4
	c-0.1,0.1,0.1,0.5,0.1,0.7c0.1,0,0.1,0,0.2,0c-0.2,0.4-0.3,0.9-0.5,1.3c-0.3,0.4-0.7,0.4-1.1,0.1c-0.2-0.1-0.5-0.1-0.8-0.1
	c0.3,0.3,0.4,0.5,0.6,0.8c0.2,0,0.5-0.1,0.9-0.1c-0.3,0.5-0.6,0.9-0.8,1.3c-0.1,0.1-0.4,0.1-0.5,0.1c-0.1-0.1-0.2-0.3-0.3-0.5
	c0,0,0,0-0.1,0c-0.3,0.2,0,1-0.7,0.8c-0.4-0.1-0.8,0-1.2,0c-0.6,0.1-1.1,0.2-1.7,0.5c0.5,0.1,1,0.2,1.5,0.3c0,0.1,0,0.1,0,0.2
	c-0.1,0-0.3,0.1-0.4,0.1c-0.8,0.1-1.5,0.1-2.3,0.2c-0.1,0-0.2,0.2-0.3,0.3c-0.3,0.2-0.7,0.5-0.9,0.8c-0.5,0.5-1.2,0.7-1.8,1
	c-0.2,0.1-0.5,0.1-0.6,0.3c-0.8,0.6-1.8,0.6-2.6,0.7c-0.6,0-1.1,0.3-1.7,0.4c-0.4,0.1-0.8,0.4-1.2,0.5c-0.3,0.1-0.7,0.1-0.9,0.1
	c-0.6-0.2-1.2-0.3-1.8,0c-0.1,0-0.2,0-0.3,0c-0.6-0.5-1.3-0.2-2-0.2c-1,0-2.1-0.1-3.1-0.3c-1-0.1-2-0.4-3-0.6
	c-0.6-0.1-1.1-0.2-1.7-0.4c0,0-0.1,0-0.1,0c-0.8-0.6-1.6-1.1-2.5-1.7c0.9-0.4,1.6-1.1,2.6-0.5c0.2,0.1,0.6-0.3,1-0.5
	c0-0.3,0-0.7,0-1c-0.4-0.1-0.8-0.1-1.2-0.2c0-0.2,0.1-0.4,0.1-0.6c-1.4-0.5-2.7-0.1-4.1,0.5c-0.9,0.4-1.4,0.3-2.2-0.4
	c-0.8-0.7-1.2-1.7-1.4-2.7c-0.2-1.2-0.3-2.3-0.5-3.5c0-0.1-0.2-0.2-0.2-0.3c0.2-0.4,0.5-0.8,0.7-1.1c-0.3-0.2-0.5-0.4-0.8-0.6
	c-0.1,0.1-0.3,0.2-0.5,0.3c0-0.4,0-0.7,0.1-0.9c-0.3-0.2-0.6-0.4-0.9-0.6c0.5-0.5,0.8-0.9,1.2-1.3c-0.9-0.3,0-0.9-0.3-1.2
	c-0.2,0-0.4,0.1-0.7,0.1c0.1-0.2,0.2-0.4,0.3-0.7c-0.1-0.1-0.3-0.2-0.5-0.3c0.2-0.1,0.3-0.3,0.5-0.4c-0.7-1.2-0.3-2.5,0.4-3.6
	c0.8-1.1,2-1.1,3-1.2c1.4-0.2,2.6-0.9,3.9-1.4c0.8-0.3,1.6-0.6,2.3-1c0.6-0.3,1-0.7,1.5-1c0,0-0.1-0.5-0.2-0.5c-0.3,0-0.7,0.1-1,0.1
	c-0.4,0-0.6,0.2-0.6,0.6c0,0-0.4,0.1-0.5,0.1c-0.4-0.2-0.6-0.5-1-0.7c-0.3-0.1-0.7-0.2-1-0.2c-0.4,0-0.8,0-1.2,0c0-0.3,0-0.7,0-1.1
	c0.1,0.1,0.2,0.2,0.3,0.3c0.1-0.2,0.1-0.5,0.2-0.7c-1.5-0.5-0.2-1.4-0.2-2c-1-0.1-0.9-0.1-0.9-1.1c0-1.2,0.6-2.1,1.4-2.8
	c0.9-0.8,1.6-1.7,2.5-2.5c0.3-0.2,0.6-0.4,0.9-0.6c0.7-0.4,1.4-0.6,2.1-1c0.8-0.5,1.6-0.9,2.6-0.8c0.5,0.1,1-0.3,1.6-0.4
	c0.6-0.1,1.3-0.3,2-0.3c0.2,0,0.6,0.1,0.6,0.2c0.1,0.8,0.9,0.6,1.2,1c0.4,0.5,0.8,0.8,1.4,1c0.1,0,0.2,0.1,0.2,0.2
	c0.3,0.4,0.6,0.9,0.8,1.4c0.1,0.2,0.1,0.5,0.2,0.7c1.4,0.5,2.8,0.7,4.1-0.6c0.4-0.4,0.9-0.8,1.4-1.1c0.1-0.1,0.3-0.2,0.5-0.2
	c1.1,0.3,1.7-0.6,2.5-1c0.3-0.1,0.6-0.2,0.9-0.3c0.3-0.1,0.6-0.2,0.8-0.5c0.6-0.8,1.4-1,2.2-1.3c1.3-0.4,2.5-0.9,3.8-1.2
	c1-0.3,2-0.5,3-0.7c1.7-0.3,3.4-0.4,5.1-0.1c1.7,0.4,3.3,0.8,5,1.2c0.3,0.1,0.6,0.1,1,0.2c0,0.8,0.6,0.7,1.1,0.7
	c0.6,0,1,0.2,1.3,0.8c0.4,0.6,0.9,1.1,1.5,1.5c1.3,0.9,2.7,1.6,3.4,3.1c0.4,0.7,0.9,1.4,1.4,2c0.3,0.4,0.6,0.6,0.6,1.2
	c0,0.5,0.5,0.7,1.1,0.3c1.1,1.7,1.7,3.5,1.8,5.6c0,0.2-0.1,0.6,0,0.7c0.7,0.5,0.6,1.2,0.6,1.9c0,0.4,0.2,0.9-0.4,1.2
	c-0.1,0.1-0.1,0.4-0.1,0.6c-0.1,0.3-0.1,0.5-0.2,0.8c-0.2-0.1-0.4-0.1-0.7-0.2c-0.1,1.2-0.1,2.5-0.3,3.8c-0.1,0.8-0.4,1.5-0.7,2.3
	c-0.1,0.3-0.1,0.7-0.2,1c0,0.3-0.1,0.5-0.2,0.8c0.5,1.2-0.3,2.2-0.7,3.3c-0.4,1-0.5,2.2-1.8,2.7c0.3,0.2,0.5,0.3,0.8,0.5
	c-0.5,0.3-1.3,0.5-1.4,0.8c-0.1,0.5-0.2,0.9-0.5,1.2c-0.5-0.1-0.9-0.2-1.3-0.3c0,0.1-0.1,0.2-0.1,0.3c0.3,0.2,0.6,0.3,1,0.5
	c0,0.7-0.3,0.9-1.1,0.8c-0.6-0.1-1.1-0.1-1.5,0.5c0.2,0,0.3,0,0.5,0c0,0.4-0.1,0.7-0.6,0.5c-0.2-0.1-0.5,0-0.7,0c0,0.2,0,0.4,0,0.6
	c0,0.1-0.1,0.2-0.1,0.3c-0.5-0.3-0.8-0.3-1.2,0.3c-0.5,0.7-1.4,1.2-2.2,1.8c-0.1-0.6-0.2-1-0.3-1.5c-0.3,0.4-0.5,0.6-0.7,0.9
	c0,0.1,0.2,0.3,0.2,0.3c-0.2,0.3-0.4,0.6-0.6,0.9c-0.3,0.4-0.6,0.8-1,1c-0.7,0.3-1.6,0.4-2.4,0.6c-0.2,0-0.4,0-0.5,0.2
	c-0.6,0.9-1.2,0.4-1.8,0.3c-1.3,0.2-2.7,0.4-4.1,0.7c0-0.4-0.1-0.6-0.1-0.8c-0.6-0.4-1.2-0.7-1.7-1c-0.4,0-0.8,0.1-1.2,0.1
	c-0.3-0.1-0.8-1.3-0.7-1.6c0.4-1,0.9-2,1.3-3c0-0.1,0.2-0.1,0.3-0.2c1.2-0.2,2.5-0.4,3.7-0.7c0.8-0.2,1.5-0.4,2.2-0.6
	c0.4-0.1,0.7-0.2,1.2-0.3c0-0.1,0-0.3-0.1-0.5c0.5-0.1,1-0.2,1.6-0.3c-0.2-0.2-0.3-0.3-0.5-0.5c0.3-0.1,0.5-0.3,0.7-0.3
	c0.6,0,1.1-0.2,1.4-0.9c0.4-0.9,1.5-0.9,2-1.7c0.7-0.9,1.5-1.6,2.2-2.4c0.2-0.2,0.1-0.6,0.3-0.8c0.3-0.4,0.6-0.8,1-1.2
	c0.3-0.3,0.5-0.5,0.2-0.9c-0.1-0.2,0-0.5,0-0.7c0.1-0.6,0.5-1.1,0.3-1.8c-0.1-0.4,0.1-0.9,0.3-1.3c0.1-0.3-0.1-0.5-0.1-0.8
	c-0.1-0.7,0-1.4,0.1-2.1c0-0.3,0-0.7,0-1.1c-1.2-0.3-0.4-1.3-0.7-1.9c0.3-0.2,0.6-0.4,0.8-0.5c0-0.1,0-0.1,0-0.2
	c-0.2,0-0.5,0-0.8-0.1c0.3-0.3,0.5-0.6,0.7-0.8c-0.5-0.2-1-0.4-1.7-0.7C192,61.9,192.2,61.7,192.3,61.5z M161.1,62.4
	c-0.4-0.1-0.8-0.3-1.1-0.2c-0.4,0.1-0.7,0.3-1.1,0.5c-0.5,0.3-0.9,0.6-1.3,0.9c-2.1,1.1-4.3,2.3-6.4,3.4c-0.5,0.3-1,0.5-1.5,0.7
	c0,0,0,0.1,0.1,0.1c0.1,0,0.3,0,0.6,0c-1,0.4-1.9,0.6-2.8,1c-0.3,0.1-0.7,0.3-0.7,0.6c-0.3,1.1-0.4,2.2-0.6,3.3
	c-0.4,1.5,0.6,2.7,1,4.1c0.1,0.2,0.3,0.3,0.5,0.4c0.6,0.4,1.1,0.7,1.7,1.1c0.1,0.1,0.3,0.3,0.3,0.4c-0.2,0.8,0.5,0.9,1,1.1
	c-0.1,0.3-0.3,0.6-0.4,0.9c0.4-0.2,0.8-0.3,1.2-0.5c0.5-0.2,0.9-0.2,1.2,0.2c0.2,0.2,0.1,0.7,0.1,1.1c0.3-0.1,0.7-0.1,0.9-0.3
	c0.6-0.6,1-0.2,1.5,0.1c0.4,0.3,0.9,0.5,1.4,0.7c0.2,0.1,0.5-0.1,0.8,0c1.4,0.6,2.9,0.2,4.2-0.1c1.8-0.5,3.6-1.1,5.3-1.8
	c0.9-0.3,1.2-1,1.9-1.5c0.7-0.5,1.2-1.4,2.2-1.6c0.1,0,0.2-0.3,0.4-0.4c-0.1-0.1-0.3-0.2-0.4-0.3c0.2-0.5,0.5-1,0.7-1.5
	c0.2-0.4,0.5-1,0.4-1.4c-0.1-0.6,0.2-1.1,0.3-1.6c0.1-0.6,0.1-1.2-0.1-1.7c-0.4-1-0.9-1.9-1.6-2.7c-1.5-1.8-3.5-2.6-5.8-2.9
	c-0.3,0-0.6-0.2-0.9-0.2C162.3,64.7,161.2,63.8,161.1,62.4z M152.9,53.7c0.3,1,0.7,2,0.7,2.9c0.1,0.9-0.1,1.9-0.2,2.8
	c1.7-0.3,3-1.5,4.2-2.7c0.1-0.1,0.1-0.4,0-0.5c-0.4-0.4-0.8-0.8,0-1.3c-1.3,0.1-2.4-0.1-3.3-0.9C154,53.8,153.4,53.8,152.9,53.7z
	 M150.3,60.5c0,0.1,0.1,0.2,0.1,0.3c0.7-0.1,1.2-0.5,1.7-1C151.5,60.1,150.9,60.3,150.3,60.5z"/>
<path d="M323.8,63c-0.6,0-1.3,0.1-1.9,0c-0.7-0.1-1.3-0.4-2-0.4c-1.3,0.1-2.5,0.4-3.7,0.5c-0.5,0-1.1-0.2-1.4-0.5
	c-0.2-0.2-0.1-0.8,0-1.1c0.2-0.4,0.3-0.7-0.1-1.1c-0.2-0.2-0.1-0.6-0.2-1c0.4,0.2,0.6,0.3,0.5,0.3c0.3-0.5,0.4-1,0.8-1.3
	c1.6-1.4,3.2-2.7,4.9-4c1.6-1.2,3.1-2.4,4.7-3.6c0.6-0.4,1.4-0.7,2-1.1c0.5-0.3,1-0.6,1.5-0.9c0.4-0.2,0.8-0.5,1.2-0.6
	c1.1-0.4,2.2-0.9,3.3-1.1c1-0.2,2-0.3,3.1-0.4c0.2,0,0.4,0,0.5,0.2c0.5,0.6,1.1,0.4,1.7,0.3c0.8,0,1.6,0.1,2.5,0.1
	c0.1,0,0.3,0.1,0.3,0.2c0.7,1.1,1.9,1.3,2.8,2c0.2,0.1,0.3,0.4,0.4,0.6c0.1,0.3,0.2,0.6,0.4,0.8c0.7,0.9,1.6,1.8,2.2,2.8
	c1,1.8,1.8,3.6,2.5,5.5c0.5,1.2,0.6,2.4,0.4,3.7c-0.1,0.6,0,1.3,0.1,1.9c0.3,1.4-0.1,2.7-0.3,4c0,0.3-0.1,0.5-0.1,0.8
	c-0.1,0.7,0.1,1.5-0.6,2c-0.1,0.1-0.2,0.5-0.2,0.7c0,0.6-0.1,1.1-0.5,1.7c-0.4,0.6-0.5,1.4-0.7,2.1c-0.3,0.9-0.5,1.9-1.6,2.2
	c-0.1,0-0.2,0.1-0.2,0.2c-0.3,0.6-0.8,0.9-1.4,1.2c-0.3,0.2-0.7,0.4-0.7,0.9c0,0.2-0.4,0.5-0.7,0.6c-0.3,0.1-0.6,0.2-0.9,0.3
	c-0.2,0.1-0.5,0.2-0.5,0.3c0.2,0.9-0.8,0.8-1.1,1.2c-0.1,0.2-0.2,0.4-0.4,0.6c-0.1,0.2-0.2,0.5-0.3,0.7c-0.5,0.6-0.9,1.2-1.5,1.6
	c-0.5,0.4-1.2,0.4-1.9,0.6c-0.6,0.2-1.3,0.4-1.8,0.8c-0.3,0.2-0.3,0.6,0.1,1c0.6,0.6,1.3,1.3,1.3,2.3c0,0.1,0.1,0.3,0.1,0.3
	c1.2,0.7,2.3,1.4,3.8,0.6c0.9-0.5,2-0.8,2.8-1.4c0.9-0.7,1.7-1.6,2.4-2.4c0.2-0.2,0.3-0.4,0.4-0.7c0.5-0.7,0.9-1.4,1.4-2.1
	c0.1-0.2,0.3-0.4,0.3-0.6c0.1-1.3,1.4-2.4,2.7-2.2c0.9,0.1,1.8,0.5,2.4,1.2c0.2,0.2,0.5,0.5,0.8,0.7c0.8,0.4,0.9,1.1,0.6,1.7
	c-0.5,1.4-1,2.7-2.1,3.8c-0.5,0.4-0.7,1.1-1.1,1.6c-0.7,0.9-1.6,1.7-2.3,2.5c-0.9,0.9-1.9,1.6-3,2.2c-0.1,0.1-0.2,0.3-0.3,0.4
	c-0.1,0.1-0.2,0.3-0.3,0.4c-0.3,0.2-0.7,0.4-0.9,0.7c-0.7,1-1.7,1.3-2.8,1.6c-0.8,0.2-1.6,0.3-2.4,0.4c-0.2,0-0.4,0-0.6,0
	c-0.1,0-0.3-0.2-0.4-0.1c-1.4,0.3-2.7-0.6-4-0.4c-0.2,0-0.4,0-0.6-0.1c-1-0.7-2.2-1.3-3.1-2.1c-0.9-0.8-1.7-1.9-2.5-2.9
	c-0.4-0.5-0.7-1.1-1-1.6c-1-1.9-0.5-3.7,0-5.6c0.2-1,0.4-2.1,1.2-2.8c0.6-0.6,1.3-1.1,2-1.5c1.4-0.9,2.9-1.6,4.3-2.4
	c1.2-0.7,2.4-1.4,3.7-2.2c0.4,1.3,1.3,1.9,2.7,1.3c0.6-0.2,0.9-1.2,0.8-1.8c-0.2-0.8-0.8-1.1-2-1.2c0.4-0.9,0.9-1.7,1.1-2.7
	c0.5-2.6,1-5.1,1.1-7.7c0.1-1.8-0.4-3.7-0.8-5.6c-0.4-2.1-1.5-3.7-3.7-4.3c-0.7-0.2-1.5-0.4-2.2-0.6c-1.3-0.4-2.4-0.1-3.4,0.5
	c-1.3,0.7-2.6,1.4-3.9,2.1c0.1,0.1,0.3,0.3,0.5,0.4c0.8,0.4,1.7,0.8,2.5,1.2c1,0.5,1.8,1.3,2.4,2.3c0.5,0.9,1.1,1.9,1.6,2.8
	c0.2,0.3,0.3,0.8,0.3,1.1c0.2,0.9,0.5,1.8,0.5,2.6c-0.1,1.5-0.5,3-0.8,4.4c-0.1,0-0.1,0-0.2,0c-0.1-0.2-0.2-0.3-0.2-0.5
	c-0.1,0-0.2,0-0.2,0.1c-0.4,0.7-0.9,1.4-1.1,2.2c-0.3,1-1,1.4-1.6,2c-0.3,0.4-0.7,0.8-1.1,1.2c-0.1,0.1-0.1,0.2-0.2,0.2
	c-1.1,0.3-1.8,1.2-2.7,1.8c-0.1,0.1-0.3,0.2-0.5,0.1c-0.6,0-1.1,0.4-1.3,0.9c-0.2,0.9-0.9,1.4-1.8,1.3c-0.2,0-0.5,0.1-0.8,0.2
	c-0.4,0.2-0.7,0.7-1.1,0.7c-0.7,0.1-1.4,0.1-1.9,0.8c-0.1,0.1-0.5-0.1-0.6-0.1c-0.6,0.1-1.2,0.3-1.7,0.4c-1,0.1-2,0.2-3,0.3
	c-0.1,0-0.1,0-0.2,0.1c-0.8,0.7-1.8,0.4-2.7,0.4c-0.3,0-0.7,0-1,0c-1.1,0.3-2-0.1-3.1-0.2c-0.2,0-0.3-0.2-0.5-0.3
	c-0.5-0.3-1-0.7-1.4-1c-0.3-0.2-0.5-0.5-0.8-0.7c-0.3-0.2-0.6-0.6-0.9-0.5c-0.7,0-1.1-0.3-1.5-0.8c-0.3-0.4-0.7-0.7-1-1
	c-0.5-0.5-0.9-1-1.4-1.5c-0.3-0.3-0.5-0.9-1-0.4c-0.3-0.5-0.6-1-0.8-1.5c-0.1-0.1-0.1-0.2-0.1-0.4c0-0.1,0.1-0.2,0-0.3
	c-0.2-0.7-0.5-1.3-0.8-2c-0.8-1.7-1.2-3.4-1.3-5.3c-0.1-1.2-0.5-2.5-0.7-3.7c-0.3-1.8-0.2-3.6,0.7-5.3c0.4-0.8,0.8-1.7,0.9-2.6
	c0.3-1.5,1.1-2.6,1.8-3.8c1.2-2.2,3.1-3.7,5.3-4.9c1.4-0.7,2.9-1.3,4.4-1.9c2.1-0.8,4.2-1.5,6.3-2.2c1.5-0.5,3-0.9,4.6-0.6
	c0.8,0.1,1.6-0.1,2.4,0c1.5,0.2,2.4,1.2,3.2,2.3c0.5,0.7,0,2.4-0.8,2.8c-2.3,1.4-4.9,1.9-7.6,2.3c-1.3,0.2-2.6,0.3-3.9,0.7
	c-2.9,1-5.3,2.6-6.5,5.6c-0.8,1.9-1.8,3.7-1.9,5.8c0,0.1-0.2,0.3-0.3,0.4c0.5,0.3,0.8,0.7,0.3,1.3c-0.1,0.1-0.1,0.5,0.1,0.6
	c0.7,0.8,0.6,1.7,0.5,2.6c-0.1,0.6,0.1,1.1,0.4,1.6c0.6,1,1.3,2,1.9,3c0.5,0.8,0.8,1.6,1.3,2.5c-0.1,0-0.2,0.1-0.5,0.1
	c0.1,0.1,0.2,0.2,0.3,0.2c0.5,0,0.9,0.1,1.3,0.5c1.2,1.1,2.7,2,4.4,2.2c0.7,0.1,1.3,0,2,0.1c0.6,0,1.1,0.2,1.7,0.2
	c1,0.1,1.9-0.3,2.7-0.9c0.1-0.1,0.1-0.2,0.2-0.2c1.1,0,1.7-0.9,2.5-1.5c0.7-0.5,1.3-1.4,1.7-2.2c0.8-1.7,1.5-3.5,2.2-5.3
	c0.1-0.3,0.2-0.7,0.1-1c-0.1-0.8-0.2-1.6-0.6-2.3c-0.3-0.5-0.9-0.9-1.4-1.3C324.4,63.4,324.1,63.2,323.8,63z"/>
<path d="M254,64.3c0.8,0.4,1.3,0.7,1.2,1.5c0,0.1,0,0.2,0,0.2c-0.4,0.7-0.8,1.4-1.2,2.1c-0.2,0.4-0.4,0.7-0.6,1.1
	c-0.8,1.5-1.9,2.6-3.4,3.5c-0.1,0.1-0.3,0-0.4,0c0.1,1-1.5,2.7-2.8,2.7c0-0.2,0-0.4,0-0.7c-0.2,0-0.5,0-0.5,0.1
	c-0.3,0.9-1.2,0.7-1.8,1c-0.1,0-0.2,0-0.3,0.1c-1.3,0.9-2.8,1.1-4.4,1.2c-1.4,0.1-2.8,0-4.2,0.4c-1.9,0.5-3.3-0.3-4.7-1.1
	c-1.1-0.6-2.1-1.3-3.1-2c-0.5-0.4-1-0.8-1.5-1.2c-0.5-0.4-0.9-0.9-0.3-1.6c-1.3-1-1.1-2.4-1-3.7c0.1-1-0.3-1.5-1.3-1.3
	c-1.4,0.3-2.8,0.1-4.1-0.2c-1.1-0.2-1.6-1.1-1.4-2.2c0-0.2-0.1-0.5-0.2-0.7c-0.1-0.1-0.3-0.2-0.3-0.4c-0.1-0.3-0.2-0.6-0.3-0.9
	c0.3,0,0.6,0,0.9,0c0.7,0,1.4,0,2.1-0.1c1.2-0.2,2.4-0.4,3.5-0.8c1.5-0.5,3-0.2,4.5-0.4c0.5-0.1,1.1-0.4,1.6-0.3
	c0.9,0,1.7,0.2,2.7,0.4c0.5-0.7,1.4-0.2,2.2-0.4c0.5-0.1,0.9-0.1,1.4-0.1c0.8,0,1.6-0.1,2.2,0.7c0.2,0.2,0.6,0.2,0.9,0.3
	c-0.2,0.1-0.4,0.3-0.7,0.5c0,0.1,0.1,0.1,0.1,0.2c0.4-0.1,0.7-0.2,1.1-0.3c0-0.2,0.1-0.4,0.1-0.6c0,0,0.1,0,0.1,0
	c0.1,0.3,0.1,0.6,0.2,0.9c0.2,0,0.4,0,0.6,0c0,0.1,0,0.1,0,0.2c-0.2,0.1-0.4,0.1-0.7,0.2c0.4,0.3,0.4,0.7-0.1,0.7
	c-0.6,0-1.1,0.2-1.6,0.5c-0.3,0.2-0.7,0.2-0.9,0.3c0.1,0.3,0.3,0.6,0.4,0.9c-0.3,0-0.6,0-1,0.1c-0.1,0-0.3,0.3-0.5,0.3
	c-0.6-0.1-1.1-0.1-1.6,0.7c-0.1-0.5-0.1-0.7-0.2-1c-0.5,0.7-1.1,0.6-1.7,0.6c-0.7,0-1.4,0.3-2.1,0.6c-0.2,0.1-0.2,0.8-0.1,1.2
	c0.4,1,0.8,2,1.9,2.5c0.1,0,0.2,0.1,0.2,0.2c0.8,1.3,2,1.2,3.1,0.7c1.3-0.5,2.6-0.6,3.9-0.7c0.9-0.1,1.5-0.7,2-1.1
	c1.1-0.9,2.2-2,3.2-3.1c0.4-0.5,0.7-1.4,0.8-2.1c0.1-0.8,0-1.7,0-2.6c0-0.2,0.2-0.4,0.4-0.7c-0.8,0.2-1-0.3-1.2-0.8
	c-0.2-0.6-0.6-1.1-1-1.7c0.1-0.2,0.2-0.3,0.4-0.6c-0.9-0.1-1.8-0.1-1.8-1.4c0,0.1,0,0,0,0c-1.3,0.1-2-1.1-3.1-1.4
	c-0.9-0.3-1.6-0.9-2.6-0.8c-0.4,0.1-0.9-0.3-1.3-0.5c-0.6-0.2-1.3-0.4-1.9-0.6c-0.2,0-0.3,0-0.5,0c-1.5,0-3,0-4.5,0.1
	c-0.3,0-0.5,0.2-0.8,0.3c-1.5,0.3-3,0.6-4.5,0.9c-0.2,0-0.3,0.1-0.4,0.2c-0.2,0.1-0.4,0.4-0.6,0.4c-1.6,0.4-2.8,1.4-4,2.5
	c-1.5,1.4-3,2.8-3.7,4.9c-0.3,0.8-0.6,1.5-1.3,2c-0.2,0.2-0.5,0.3-0.7,0.5c0,0.1,0.1,0.1,0.1,0.2c0.2-0.1,0.5-0.1,1-0.3
	c-0.2,0.6-0.3,1-0.5,1.4c-0.3-0.2-0.4-0.4-0.6-0.5c-0.1,0.2-0.3,0.4-0.3,0.6c-0.2,0.7-0.5,1.4-0.5,2.2c0,1.4,0.1,2.9,0.2,4.3
	c0,0.3,0,0.7,0,1c-0.2,0.1-0.4,0.2-0.7,0.3c0.9,0,1,0.5,0.9,1c0,0.3,0,0.7,0.1,1c0,0.2,0.1,0.3,0.1,0.5c0,0.7,0.1,1.4,0.1,2.2
	c-0.1,0.1-0.3,0.3-0.4,0.4c0.5,0.5,0.9,0.8,1.2,1.2c-0.4,0.3-0.5,0.4-0.7,0.6c0.2,0.1,0.3,0.3,0.5,0.4c0.4,0.2,0.6,0.4,0.6,1
	c-0.1,0.5,0.5,1,0.7,1.6c0.5,1.4,1.7,2.2,2.6,3.2c1.6,1.6,3.7,2.5,5.7,3.5c0.5,0.2,1,0.3,1.5,0.4c2,0.4,4,0.7,6,1.2
	c1.3,0.3,2.5-0.1,3.7-0.3c2.4-0.4,4.6-1.4,6.6-2.6c0.5-0.3,1-0.7,1.5-1.1c0.9-0.7,1.9-1.3,2.7-2c1.4-1.2,2.6-2.6,3.4-4.4
	c0.4-0.9,1-1.8,1.6-2.7c0.1-0.2,0.2-0.4,0.3-0.6c0.2-0.3,0.3-0.8,0.9-0.7c0.4,0.1,0.9-0.2,0.9-0.8c0.2,0,0.5,0.1,0.7,0
	c0.9-0.3,1.4,0.2,1.7,0.9c0.3,0.6,0.9,1.2,0.6,2.1c-0.6,1.6-0.6,3.4-1.5,5c-1.1,1.9-1.7,4.1-3.4,5.7c-0.2,0.2-0.4,0.3-0.6,0.4
	c-1.1,0.3-1.6,1.1-1.9,2c0,0.1-0.1,0.2-0.1,0.2c-0.5,0.2-1,0.4-1.5,0.6c-0.2,0.1-0.3,0.4-0.5,0.7c-0.3,0.2-0.7,0.5-1.1,0.7
	c-1.1,0.6-2.2,1.3-3.3,1.8c-0.9,0.4-1.8,0.6-2.7,0.9c-0.1,0-0.3,0.1-0.4,0.2c-0.3,0.1-0.6,0.3-0.9,0.4c-0.4,0.1-0.8,0.2-1.1,0.3
	c-0.4,0.1-0.8,0.2-1.2,0.2c-0.9,0-1.6,0.6-2.5,0.7c-0.3,0.1-0.7,0.2-1,0.2c-1,0-2,0-3.1,0c0,0-0.1,0-0.1,0c-0.6,0.5-1.3,0-2,0.1
	c-0.4,0.1-0.9-0.1-1.3-0.1c-1,0-2,0-3.1,0c-0.3,0-0.7,0-0.9-0.2c-0.6-0.7-1.5-0.8-2.2-1.1c-1.2-0.5-2.4-1.3-3.6-1.9
	c-0.5-0.3-1-0.4-1.5-0.6c-0.4-0.2-0.8-0.4-0.3-1c-1.8-0.3-2.7-1.6-3.7-2.8c-0.9-1.2-1.8-2.3-2.6-3.6c-0.3-0.5-0.4-1.1-0.7-1.6
	c-0.1-0.3-0.4-0.5-0.5-0.7c-0.2-0.3-0.5-0.6-0.6-0.9c-0.4-1.2-0.9-2.4-1.2-3.6c-0.3-1.3-1-2.5-0.5-3.9c0.1-0.2,0-0.4,0-0.6
	c0-0.2-0.1-0.3-0.2-0.5c-0.1-0.8-0.2-1.7-0.3-2.6c0.1-0.2,0.3-0.6,0.5-1c-0.1,0-0.1,0-0.2,0c-0.1-0.2-0.3-0.3-0.3-0.5
	c0-0.7-0.2-1.4,0.4-2c0.3-0.3,0.1-1,0.2-1.5c0.2-1.5,0.3-3,0.6-4.4c0.2-1,0.7-1.9,0.9-2.9c0.1-1,0.9-1.5,1-2.4
	c0.1-0.3,0.2-0.7,0.3-1c0.1-0.3,0.2-0.6,0.4-0.8c0-0.1,0.2-0.1,0.2-0.2c0.1-1.7,1.7-2.3,2.5-3.4c0.8-1,1.7-1.8,2.7-2.6
	c1.2-0.9,2.5-1.8,3.8-2.6c1.6-0.9,3.4-1.8,5.1-2.5c2.3-1,4.6-1.6,7.1-1.7c2-0.1,3.9-0.2,5.9-0.2c1,0,2,0.4,2.9,0.7
	c0.6,0.1,1.2,0.3,1.8,0.3c0.9,0.1,1.7,0.2,2.5,0.8c0.8,0.6,1,0.5,1.5-0.9c0.2,0.3,0.4,0.5,0.7,0.8c-0.3,0.2-0.5,0.4-0.7,0.6
	c0.2,0.1,0.4,0.2,0.6,0.3c0.9,0.4,1.9,0.7,2.8,1.1c0.2,0.1,0.4,0.2,0.5,0.4c0.5,0.6,0.9,1.2,1.5,1.8c0.2,0.2,0.6,0.2,0.9,0.4
	c0.8,0.7,1.5,1.5,2.3,2.3c0.3,0.3,0.6,0.5,0.8,0.9c0.3,0.5,0.5,1.1,0.8,1.6c0.1,0.1,0.1,0.3,0.3,0.4c0.9,0.5,1.3,1.3,1.6,2.2
	c0.2,0.6,0.5,1.2,0.6,1.8c0.1,0.6-0.1,1.3-0.2,2c0,0.2,0,0.5,0.2,0.7c0.2,0.3,0.3,1.3,0,1.5c-0.2,0.1-0.4,0.1-0.7,0.2
	C254.5,64.1,254.3,64.2,254,64.3z M221.1,92.8c-0.1,0.2-0.7,0.3-0.6,0.8c0,0-0.1,0.1-0.2,0.1c-0.5,0.2-1,0.5-1.6,0.6
	c-0.5,0.1-0.4,0.4-0.5,0.7c0,0.4-0.1,0.8,0.4,0.8c0.5,0,0.7,0.3,1,0.6c0.4,0.6,1,0.5,1.3-0.1c0.2-0.5,0.3-1,0.4-1.3
	c0.5,0,0.9-0.1,1.2-0.1C222.1,94.1,221.5,93.4,221.1,92.8z"/>
<path d="M393.7,81.6c0.2-0.1,0.3-0.2,0.5-0.4c-0.4-0.1-0.8-0.5-1.1,0.2c0,0.1-0.8,0.1-1.1-0.1c-0.4-0.2-0.7-0.5-1.1-0.9
	c-0.2-0.2-0.7-0.4-0.3-0.9c0.1-0.1-0.1-0.4-0.2-0.5c-0.6-0.5-0.3-1.1-0.2-1.6c0-0.2,0.5-0.4,0.8-0.5c0.2-0.1,0.5-0.1,0.6-0.3
	c0.7-1.1,1.9-0.9,2.8-1c0.8-0.1,1.4-0.3,1.9-0.9c1.5-1.4,2.4-3.1,2.5-5.2c0-0.8,0.2-1.5,0.5-2.2c0.4-1.1-0.1-2.1-0.3-3.2
	c0-0.3,0-0.5-0.1-0.8c0-0.2-0.1-0.6-0.2-0.6c-1,0-0.8-0.9-0.9-1.4c-0.3-2.1-1.1-4.1-2.1-6c0,0,0-0.1-0.1-0.1
	c-0.9-0.7-1.8-1.5-2.8-2.1c-1-0.6-2.2-0.6-3.3-0.1c-0.5,0.2-1,0.4-1.5,0.6c-0.2,0.1-0.3,0.5-0.5,0.6c-0.4,0.2-0.8,0.2-1.4,0.3
	c-0.5,0.7-1.4,1-2.7,1.3c1.7,0.6,2.1,2.1,3,3.1c0.3,0.3,0.3,1,0.3,1.5c0,0.5-0.2,0.9,0.3,1.4c0.3,0.2,0.3,0.7,0.4,1.1
	c0.1,0.8,0.2,1.6,0.2,2.4c0,0.1-0.1,0.4-0.3,0.4c-0.5,0.1-1,0.2-1.4,0.2c-0.4,0-0.8,0-1.2,0c-0.1,0-0.2,0.2-0.2,0.3
	c0,0,0.1,0.2,0.2,0.2c0.1,0,0.2,0,0.3,0c0.8-0.2,1.5,0.2,2.3,0.3c0.2,0,0.4,0.2,0.4,0.4c0,0.7-0.2,1.4-0.3,2.1
	c-0.1,0.4,0.4,0.8-0.1,1.3c-0.3,0.3-0.3,0.8-0.4,1.3c0.6,0.4,0.6,0.7,0.4,1.5c-0.1,0.6-0.3,1-0.9,1.2c-0.1,0-0.2,0.4-0.1,0.5
	c0.1,1-0.7,2.1-1.6,2.4c-0.5,0.2-1,0.5-1.5,0.6c-0.5,0.1-1.1,0-1.4,0c-0.4,0.3-0.5,0.6-0.8,0.7c-0.7,0.3-1.5,0.6-2.3,0.8
	c-0.5,0.1-1,0.2-1.5,0.3c-0.8,0.1-1.6,0.3-2.5,0.3c-0.6,0-1.2-0.1-1.9-0.1c-4.5,0.4-8.6-0.6-12.3-3.2c-0.3-0.2-0.5-0.3-0.8-0.4
	c-0.7-0.2-1.1-0.6-1.3-1.4c-0.5-1.4-1.1-2.8-1.6-4.2c-0.3-0.9-0.5-1.8-0.7-2.7c-0.2-0.9-0.4-1.9-0.5-2.8c0-0.1,0-0.3,0-0.4
	c0.5-1.2,1-2.4,1.6-3.6c0.1-0.2,0.4-0.2,0.6-0.3c0.3-0.2,0.5-0.4,0.7-0.7c1.3-0.3,2.3,0.2,2.8,1.6c0,0.2,0,0.6,0,1.1
	c0.8-0.4,1.2-1,1.7-1.6c0.3-0.4,1-0.4,1.5-0.6c0.6-0.2,1.3-0.5,1.9-0.7c0.1-0.1,0.3-0.1,0.4-0.2c0.7-1.3,2.1-1.6,3.1-2.5
	c0.7-0.6,1.5-1.3,2.2-1.9c0.4-0.4,0.5-0.8,0.3-1.3c-0.3-0.9-0.8-1.6-1.8-1.8c-0.4-0.1-0.8-0.1-0.9,0.4c-0.1,0.5-0.2,1-0.5,1.4
	c-0.4,0.8-0.4,1.8-1.2,2.3c-0.5,0.3-1.1,0.6-1.7,0.5c-0.4-0.1-0.9,0.2-1.3,0.1c-0.3,0-0.7-0.2-1-0.4c-0.3-0.1-0.6-0.3-0.9-0.3
	c-0.4,0-0.8,0-0.8-0.6c0-0.1-0.1-0.2-0.2-0.2c-1-0.5-1.4-1.3-1.1-2.3c0.1-0.2,0.1-0.5,0.1-0.7c0-0.5,0-1,0.6-1.2
	c0.3-0.1,0.5-0.4,0.7-0.6c0.8-0.8,1.6-1.8,2.6-2.5c1.1-0.8,2.4-1.3,3.6-1.9c0.3-0.1,0.5-0.2,0.8-0.2c0.6,0,0.6-0.2,0.4-0.7
	c1.2-0.4,2.4-0.4,3.5,0.2c0.2,0.1,0.6,0.1,0.8,0.2c0.5,0.2,1.1,0.5,1.6,0.8c0.2,0.1,0.2,0.4,0.3,0.6c0.1,0.3,0.2,0.5,0.4,0.8
	c0.4,0.6,0.9,1.1,1.4,1.6c0.1,0.1,0.4,0.3,0.6,0.3c1.3-0.6,2.6-1.1,3.8-1.8c1.6-1,3.3-1.8,5-2.4c1.6-0.6,3.3-0.9,5-1.3
	c0.5-0.1,0.8-0.4,0.6-1c-0.1-0.2-0.1-0.4-0.2-0.6c-0.4-1.5-0.5-3-0.6-4.6c0,0,0-0.1,0-0.1c-0.6-0.4-1.2-1-1.8-1
	c-0.8,0-1.2-0.4-1.7-0.6c0-0.1-0.1-0.2-0.1-0.3c0.4-0.3,0.8-0.6,1.2-1c0.2-0.2,0.7-0.1,0.4-0.6c0,0,0.2-0.2,0.4-0.2
	c1.3-0.2,2.2-1.1,3.1-2c1.2-1.4,3.1-1.7,4.7-1.2c0.5,0.2,0.5,0.5,0.4,0.9c-0.2,0.9-0.1,1,0.8,1c1.8,0,3.6,0,5.3-0.1
	c0.3,0,0.7-0.1,1-0.2c1.2-0.2,1.9,0.4,2.6,1.4c1.1,1.7,0.7,3.2-0.3,4.8c-0.4,0.6-0.6,1.3-0.9,1.9c-0.2,0.4-0.5,0.7-0.7,1.1
	c-0.2,0.3-0.5,0.6-0.7,0.9c-0.6,1-0.7,1-1.7,0.6c-0.1,0-0.3,0-0.4,0c0.3,0.8,0.3,0.7-0.5,0.9c-0.8,0.1-1.5,0.2-2.2-0.3
	c-0.2-0.1-0.5-0.1-0.7-0.1c-0.1,0.7-0.2,1.3-0.2,1.9c0,0.3,0.2,0.6,0.4,0.8c0.1,0.1,0.3,0.2,0.3,0.3c-0.1,0.8,0.6,0.9,1,1.2
	c0.1,0.2,0.4,0.3,0.5,0.4c0.2,0.7,0.7,0.9,1.4,1.1c1.5,0.3,2.1,1.5,2.7,2.6c0.4,0.7,1.2,1.2,0.8,2.4c-0.2,0.8,0.1,1.7,0.3,2.6
	c0.2,0.8,0.4,1.6,0.6,2.4c0.1,0.4,0.2,0.7,0.3,1.1c0.1,0.2,0.2,0.4,0.3,0.5c0.5,0.2,0.4,0.5,0.3,0.8c-0.2,0.5-0.2,0.9-0.4,1.5
	c-0.6,0.3-0.7,1-0.7,1.7c0,0.8,0.1,1.7,0,2.5c0,0.6,0.1,1.5-0.3,1.9c-0.6,0.6-0.8,1.4-1.2,2c-0.3,0.6-0.7,1.2-0.8,1.8
	c-0.2,0.6-0.1,1.3-0.1,1.8c-0.4,0.4-0.7,0.7-1,1.1c-0.5,0.6-1,1.3-1.9,1.6c-0.8,0.3-1.4,1-2.1,1.5c-0.3,0.2-0.7,0.4-1,0.7
	C397.7,81.7,395.8,81.9,393.7,81.6z M372.1,72.8c0.3,0.1,0.5,0.2,0.7,0.1c0.6-0.3,1.2-0.1,1.8,0.1c1.1,0.4,2.1,0.5,3.1-0.3
	c0.1-0.1,0.2-0.1,0.4-0.2c1.5-0.8,2.7-1.9,2.8-3.7c0-1.6-0.1-3.3-0.4-4.9c-0.2-1.1-1-1.9-2-2.5c-0.6-0.3-1.3-0.2-1.4,0.2
	c-0.1,0.6-0.4,0.6-0.9,0.5c-0.6-0.1-1.3,0.5-1.3,1.2c0,0.2-0.1,0.5-0.3,0.7c-0.5,0.4-1,0.7-1.5,1.1c-0.6,0.4-1.3,0.6-1.8,1.1
	c-1.2,1-2.3,2-3.8,2.3c-0.4,0.1-0.5,0.3-0.3,0.6c0.3,0.4,0.6,0.8,1,0.9c0.8,0.3,1.3,1.2,2.3,1.2c0.1,0,0.1,0.1,0.2,0.1
	c0.5,0.4,1,0.7,1.5,1C372.2,72.5,372.1,72.7,372.1,72.8z M399.8,38.6c0.7-0.4,1.4-0.6,2-1c0.3-0.2,0.5-0.7,0.6-1.1
	c0-0.2-0.5-0.6-0.7-0.6c-0.7,0-1.4,0.2-2.1,0.3C399.7,37.1,399.7,37.8,399.8,38.6z M387.2,73.1c-0.1,0-0.1-0.1-0.2-0.1
	c-0.3,0.2-0.7,0.3-1,0.5c0,0.1,0,0.2,0,0.2c0.3,0,0.7,0.1,1,0C387.2,73.7,387.2,73.4,387.2,73.1z"/>
<path d="M438,62c0.2,0.1,0.8,0.2,0.7,0.9c-0.1,0.5-0.2,1-0.8,0.9c-0.1,0.4-0.2,0.8-0.3,1.2c-0.8-0.6-1.5-0.1-2.3,0
	c-2.3,0.5-4.5,0.9-6.8,1.4c-0.5,0.1-1,0.4-1.5,0.6c-0.2,0.1-0.5,0.1-0.7,0.2c-1.3,0.6-2.6,1.2-3.3,2.6c-0.2,0.4-0.2,0.8,0.2,1
	c0.7,0.4,1.3,0.9,2.1,1.1c0.5,0.2,1.1,0,1.6-0.1c1.6-0.1,2.8-1.1,3.8-2.2c0.7-0.8,1.7-0.8,2.5-1.3c0.4-0.2,0.8-0.5,1.3-0.6
	c0.5-0.1,1-0.1,1.4,0c0.4,0.2,0.8,0.6,1.1,0.9c0.1,0.1,0,0.2,0.1,0.4c0.1,0.2,0.1,0.4,0.2,0.4c0.3,0.2,0.7,0.2,0.6,0.8
	c0,0.2,0.3,0.6,0.8,0.2c0.2-0.2,0.6-0.3,0.8-0.2c0.9,0.5,1.7,0.1,2.5-0.1c0.4-0.1,0.8-0.5,1.3-0.4c0.4,0,0.9-0.4,1.3-0.8
	c1.1-0.9,1.8-2,1.8-3.5c0.1-2.4,0.2-4.7,0.1-7.1c-0.1-1.6-0.1-3.2-0.2-4.8c0-0.5-0.3-1.1-0.7-1.5c-0.4-0.4-1.1-0.6-1.8-0.8
	c0.3-0.1,0.7-0.2,1.1-0.3c-0.1-0.2-0.2-0.5-0.4-0.6c-1.6-1.5-3.5-2.6-5.6-3.5c-1.4-0.6-2.9-0.8-4.5-0.9c-1.5,0-3.1,0.1-4.6,0.2
	c-0.4,0-0.7,0.2-1.1,0.3c-0.9,0.3-1.8,0.5-2.7,0.8c-0.3,0.1-0.7,0-1,0c0,0.3,0.1,0.7,0.1,1c-0.3,0-0.5,0.1-0.7,0.1
	c0,0.2,0.1,0.4,0.1,0.5c-0.1,0-0.2,0.1-0.3,0.1c-0.8-0.1-1.2,0.3-1.3,1.1c0,0.2-0.4,0.4-0.8,0.6c-0.1,0.2-0.2,0.6-0.3,1
	c-0.2,0.6-0.7,0.9-1.3,0.8c-0.3-0.1-0.7-0.1-1-0.1c-0.4-0.1-0.6,0-0.8,0.4c-0.1,0.2-0.5,0.2-0.8,0.4c-0.4,0.2-0.8,0.3-1.3,0.6
	c-1.4-0.7-2.5-2.5-2.1-4c0.1-0.4,0.6-0.6,0.9-0.9c0.3-0.3,0.4-0.7,0.6-1.2c0.1-0.5,0.7-0.9,1.1-1.3c0.2-0.2,0.3-0.4,0.4-0.6
	c0.5-0.4,0.9-1,1.4-1.2c1.2-0.4,1.9-1.3,2.8-2c0.5-0.3,0.8-0.9,1.5-1c0.3,0,0.5-0.5,0.8-0.7c0.4-0.3,0.9-0.4,1.3-0.6
	c0.1,0,0.3,0,0.3-0.1c0.9-1,2.3-1,3.5-1.5c1.3-0.5,2.7-0.7,4.2-0.3c0.2,0.1,0.5,0,0.7,0c1.2,0,2.3-0.1,3.5-0.1
	c0.4,0,0.9,0.3,1.3,0.5c0.4,0.1,0.7,0.2,1.1,0.3c0,0.2,0,0.6,0.1,0.6c0.2,0.1,0.6,0.1,0.8-0.1c0.9-0.5,2.4,0,2.9,0.8
	c0.2,0.3,0.6,0.5,1,0.5c0.5,0.1,1,0.2,1.3,0.6c0.1,0.1,0.3,0.2,0.5,0.3c0.6,0.1,1.2,0.2,1.8,0.3c0,0.1-0.1,0.1-0.1,0.2
	c0.4,0.5,0.6,1,1.1,1.4c0.3,0.2,0.9,0.3,1.3,0.2c0.9-0.1,1.4,0.6,1.9,1.1c0.5,0.5,0.6,1.3,0.9,2.2c0.1,0,0.3,0.1,0.5,0.1
	c1.3,0,2.3,1.1,2.2,2.4c0,0.2-0.2,0.3-0.4,0.4c-0.3,0.2-0.7,0.4-1.1,0.6c0,0.1,0,0.1,0,0.2c0.2,0,0.5,0,0.7,0c1,0.1,1.5,0.5,1.8,1.5
	c0.2,0.7,0.6,1.3,0.8,1.9c0.3,0.8,0.5,1.5,0.6,2.3c0.2,1.1,0.3,2.1,0.5,3.2c0.3,2.1,0,4.2-0.3,6.2c-0.2,1.7-1.3,2.9-1.9,4.4
	c-0.6,1.3-1.2,2.5-1.7,3.8c-0.1,0.2,0,0.6,0.1,0.8c0.2,0.6,0.6,1.1,0.7,1.6c0.3,1.2,0.6,2.4,0.9,3.6c0.1,0.6,0.1,1.3,0.3,1.9
	c0.2,1.2,0.6,2.5,0.8,3.7c0.2,1,0.3,2,0.3,3c0,0.3-0.2,0.5-0.2,0.8c-0.1,0.4-0.2,0.8-0.3,1.4c-0.5,0.3-1.1,0.9-1.8,1.1
	c-0.5,0.2-1.2,0.1-1.7-0.2c-0.7-0.5-1.4-0.3-1.9,0c-1.5,1-3,0.9-4.6,0.2c-0.6-0.2-1.4-0.3-1.9,0c-0.9,0.5-1.7,0.2-2.5,0.2
	c-0.3,0-0.5,0-0.8,0.1c-0.1,0-0.3,0.1-0.4,0.1c-1.2-0.4-2.3,0.3-3.4,0.6c-0.1,0-0.2,0-0.3-0.1c-0.6-0.5-1.1-0.2-1.5,0.2
	c-0.4,0.3-0.8,0.5-1.3,0.4c-0.2,0-0.4,0.1-0.6,0.1c-0.4,0-0.9,0.2-1.2,0c-1-0.7-2.1-0.3-3.2-0.3c-0.5,0-0.9,0-1.4,0
	c-0.8,0-1.5,0.1-2.3,0.1c-1.2,0.1-2.4,0.2-3.5,0.1c-0.9-0.1-1.7-0.6-2.3-1.3c-0.5-0.6-0.9-1.3-1.3-1.9c0.6-0.4,1-0.9,1.6-1.1
	c0.6-0.3,1.2-0.6,1.9-0.7c2.2-0.2,4.5-0.4,6.7-0.4c0.9,0,1.9,0.2,2.8,0.2c1.6-0.1,3.1-0.4,4.7-0.5c1.7-0.1,3.3-0.1,5-0.2
	c2.2-0.2,4.3-0.4,6.5-0.7c0.4,0,0.7-0.1,1.1-0.1c1.2,0,1,0.1,1.2-1.2c0.1-0.4,0.1-0.9,0.2-1.3c0.1,0,0.1,0,0.2,0
	c-0.2-0.2-0.4-0.5-0.6-0.7c-0.1-0.1-0.2-0.3-0.2-0.4c0-0.9,0.3-1.9,0-2.7c-0.3-0.8,0.2-1.9-0.8-2.3c-0.1,0-0.1-0.2-0.1-0.2
	c-0.3-0.9-1.1-1.2-1.8-0.8c-0.2,0.1-0.3,0.4-0.4,0.4c-0.6,0.1-1.1,0.2-1.7,0.3c-0.9,0.2-1.7,0.4-2.6,0.6c-0.6,0.1-1.3,0.2-1.9-0.3
	c-0.3-0.2-0.4-0.1-0.4,0.3c-0.6-0.1-1.1-0.3-1.7-0.4c0-0.2,0-0.3,0.1-0.5c-0.1,0-0.2,0-0.2,0c-0.1,0.5-0.5,0.5-0.8,0.2
	c-0.6-0.5-1.2-1.1-1.8-1.6c-0.8-0.7-1.5-1.5-2.4-2.1c-0.2-0.1-1,0.2-1.1,0.6c-0.5,1-1.5,1.4-2.2,2c-0.2,0.2-0.3,0.5-0.6,0.8
	c-0.3,0.1-1.1-0.3-1,0.8c-1.2,0.1-2.4,0.3-3.6,0.2c-1.5-0.1-2.9-0.5-4.4-0.8c-0.2,0-0.4-0.1-0.6-0.2c-0.5-0.2-1-0.5-1.5-0.7
	c-0.5-0.3-1.1-0.8-1.6-1.1c-0.8-0.6-1.3-1.4-1.6-2.3c-0.4-1.3-0.6-2.7-0.4-4.1c0.1-0.7,0.4-1.5,0.7-2.4c-0.5,0-0.9,0.2-1.4,0.1
	c-0.5-0.1-1-0.3-1.5-0.6c-0.3-0.2-0.4-0.6-0.6-0.8c-0.4-0.5-0.7-1-0.5-1.7c0.2-0.8,0-1.8,0.9-2.2c0.4-0.2,0.8-0.3,1.2-0.4
	c0.4-0.1,0.9,0.1,1.1-0.1c0.6-0.4,1.2-0.4,1.9-0.4c0.6,0,1.2-0.1,1.8-0.2c0.3,0,0.6,0.1,0.9,0.1c0.3,0,0.7,0,0.8,0
	c0.1-1,0.1-1.8,0.3-2.5c0.1-0.6,0.2-1.3,0.5-1.9c0.3-0.6,0.9-1.2,1.4-1.7c0.3-0.2,0.9-0.1,1.3-0.1c0.3,0,0.6-0.1,0.9-0.2
	c0.3,0,0.7-0.1,1,0c2,0.2,3.6,1.2,5.4,1.9c0.5,0.2,0.8,0.6,1.3,1c0.2,0.2,0.5,0.4,0.7,0.6c0.4,0.4,0.6,0.1,0.7-0.4
	c0.3,0.3,0.5,0.5,0.7,0.6c-0.2,0.3-0.4,0.7-0.4,0.8c0.4,0.6,0.8,0.3,1.2-0.1C437.2,60,437.5,60.9,438,62z M425.1,58.2
	c0.3,0.3,0.6,0.6,1,0.8c0.2,0.1,0.6,0,0.9,0c0-0.3,0.1-0.7-0.1-0.9C426.4,57.4,425.7,57.4,425.1,58.2z M433.3,63.2
	c0.1-0.1,0.1-0.2,0.2-0.3c-0.3-0.2-0.5-0.3-0.8-0.5c0,0.1-0.1,0.4-0.1,0.4C432.8,62.9,433.1,63,433.3,63.2z"/>
<path d="M64.1,79.6c0.3,0.2,0.4,0.3,0.7,0.5c-0.8,0.5-1.4,0.9-2.1,1.4c-0.2,0.1-0.3,0.2-0.4,0.4c-0.6,0.7-1.1,1.5-2.3,1.6
	c0.2,0.1,0.3,0.1,0.6,0.2c-0.8,0.5-1.4,1-2.1,1.4c-0.3,0.2-0.7,0.4-1.1,0.6c-0.4,0.2-0.8,0.5-1-0.2c0-0.1-0.3-0.1-0.5-0.1
	c-0.4,0-0.8,0.1-1.2,0.2c-1.2,0.4-2.4-0.3-3.7,0c-0.2,0-0.6-0.3-0.7-0.5c-0.2-0.8-0.6-0.4-0.9-0.2c-1.2-1-2.7-1.6-2.8-3.5
	c-0.7-0.3-1.4-1.4-1.2-2.5c0.1-0.6,0-1.1,0.1-1.7c0-0.4,0.2-0.8,0.3-1.2c0.1-0.4,0-0.8,0.1-1.3c0.2-1.3,0.1-2.6,0-3.9
	c0-0.1,0-0.3,0-0.4c0.1-1.7-0.6-2.8-2.1-3.8c-1.1-0.6-2.1-0.9-3.2-0.8c-0.8,0.1-0.9,0.1-0.7-0.6c-0.9,0.1-1.9,0-2.8,0.3
	c-0.8,0.2-1.5,0.6-2.2,1c-0.2,0.1-0.5,0.2-0.7,0.3c-0.2,0.1-0.5,0.3-0.7,0.5c-0.1,0-0.1,0.2-0.1,0.2c-0.8,0.4-1.5,0.7-2.3,1.1
	c-0.2,0.5-0.2,1.1-1,1.4c-0.3,0.1-0.5,0.8-0.7,1.2c-0.3,0.4-0.6,0.9-0.8,1.3c-0.1,0.2-0.1,0.5-0.1,0.8c-1,0-0.7,0.7-0.7,1.3
	c0,1.9,0.6,3.6,2,4.9c0.1,0.1,0.3,0.2,0.4,0.3c1.1,0.3,2.2,0.7,3.3,0.9c2.4,0.4,4.3-0.6,4.9-2.8c0.1-0.4,0.1-0.7,0.1-1.1
	c-0.8-0.6-1.6-0.5-2.5-0.5c-1.2,0.1-2.3,0.1-3.4-0.6c-0.1,0-0.1-0.1-0.2-0.1c-0.3-0.1-0.9-0.2-0.9-0.4c-0.2-0.7-0.1-1.4-0.2-2.1
	c0-0.2,0.1-0.5,0.1-0.7c-0.1-0.7,0.2-0.9,0.7-0.9c0.6-0.9,1.5-1.4,2.2-2.1c0.8-0.9,2-0.4,2.6-1c0.9,0.6,1.9-0.4,2.7,0.2
	c0.2-0.2,0.3-0.3,0.5-0.4c0.1,0,0.1,0.1,0.2,0.1c-0.1,0.3-0.3,0.5-0.4,0.9c0.2,0.1,0.5,0.1,0.9,0.2c-0.2,0.2-0.3,0.3-0.5,0.4
	c0.6,0.4,1.2,0.8,1.8,1.3c0.2,0.2,0.1,0.6,0.2,0.9c0.9,0,0.3,0.8,0.5,1.2c0.2,0.4,0.1,0.9,0.3,1.3c0.6,1.5,0.4,3,0,4.6
	c-0.2,1.1-0.7,2-1.2,2.9c-0.5,0.9-1.1,1.8-2,2.4c-0.8,0.5-1.7,0.9-1.8,2.1c0,0.1-0.1,0.2-0.1,0.2c-0.9,0.6-1.7,1.2-2.6,1.7
	c-0.5,0.3-0.8,0.1-1-0.3c-0.3-0.5-0.7-0.4-1.1-0.2c-0.5,0.2-1,0.5-1.5,0c0,0-0.1-0.1-0.2,0c-1.4,0.6-2.8,0.2-4.2,0.3
	c0,0-0.1,0-0.1,0c-0.9-0.6-1.7-1.3-2.5-1.9c-0.3-0.2-0.6-0.3-0.9-0.5c-0.6-0.5-1.1-1-1.6-1.5c-0.7-0.7-1.1-1.5-1-2.6
	c0-0.8-0.3-1.6-0.4-2.4c-0.1-1.1-0.2-2.1-0.2-3.2c0-1.2,0.2-2.4,0.2-3.6c0-0.3,0-0.6,0.3-0.8c0.3-0.2,0.3-0.8,0.4-1.3
	c0.4-1.3,0.8-2.7,1.9-3.7c0.4-0.3,0.5-0.8,0.8-1.2c0.2-0.2,0.6-0.5,0.9-0.5c0.4,0,0.6-0.2,0.8-0.6c0.1-0.2,0.3-0.3,0.5-0.5
	c0.3-0.3,0.5-0.6,0.7-1c0.3-0.6,0.7-1,1.4-1.2c1.4-0.5,2.7-1.2,4.1-1.7c2.2-0.7,4.4-1.2,6.7-0.9c1.7,0.2,3.4,0.4,5,1.2
	c1.6,0.8,3.2,1.6,4.2,3.1c1.1,0.3,1.3,1.3,1.7,2c0.2,0.3,0.3,0.7,0.4,1c0,0.1,0,0.3,0.1,0.3c0.6,0.6,0.6,1.4,0.8,2.1
	c0,0.1,0,0.2,0.1,0.3c0.8,0.4,0.5,1.1,0.5,1.6c0,0.8,0,1.6,0,2.4c0,0.7-0.2,1.5-0.2,2.2c0,0.9,0.4,1.4,1.3,1.7
	c0.3,0.1,0.5,0.2,0.8,0.3c1.7,0.8,3.3,0.1,3.9-1.6c0.5-1.4,1.1-2.8,1.5-4.3c0.2-0.7,0.2-1.5,0.1-2.3c-0.1-0.7,0.1-1.4-0.6-2
	c-0.2-0.2-0.1-0.9-0.1-1.4c0-0.1,0-0.3,0-0.4c-0.5-0.5-0.2-0.8,0-1c-0.1-0.9-0.2-1.6-0.4-2.5c-0.6,0-0.6-0.4-0.7-1
	c-0.1-0.7-0.3-1.4-0.8-2c-0.1-0.1-0.1-0.4-0.2-0.7c-0.8-0.1-0.8-0.9-1.1-1.6c-0.1-0.2-0.2-0.5-0.3-0.7c-0.5-0.9-1.1-1.7-1.6-2.6
	c-0.1-0.1-0.1-0.3-0.2-0.4c-0.7-0.4-1.4-0.7-2.1-1.1c0,0-0.1,0-0.1,0c-0.8-0.8-1.8-0.5-2.7-0.6c-0.3,0-0.6-0.1-1-0.2
	c-0.2,0.1-0.4,0.4-0.6,0.5C47,52,46.6,52.2,46.4,52c-0.6-0.6-1.3-0.3-1.9-0.3c-0.6,0-1.1-0.3-1.7-0.1c-0.2,0.1-0.5-0.2-0.8-0.4
	c-0.5,0.7-1.5,1-2.5,0.8c-0.1,0-0.2-0.1-0.3,0c-0.8,0.1-1.6,0.3-2.5,0.5c0.1,0.1,0.3,0.3,0.6,0.7c-2.9,0.2-4.7,2.1-6.7,3.6
	c-0.2,0.3-0.5,0.7-0.7,1c-0.4,0.5-0.7,0.9-1.1,1.4c-0.7,0.7-1.1,1.7-2.3,1.7c-0.2,0-0.4,0.2-0.7,0.3c-0.5,0.2-0.8,0.1-1-0.5
	c-0.5,0.1-1,0.2-1.4,0.3c-0.4-0.5-0.7-1-1-1.5c-0.1,0.1-0.3,0.1-0.7,0.3c0.2-0.7,0.4-1.3,0.5-1.8c0.1-1.6,1.4-2.6,2.2-3.8
	c0.2-0.2,0.2-0.6,0.3-0.9c-0.1,0-0.1-0.1-0.2-0.1c0.4-0.3,0.9-0.6,1.3-0.9c0.3-0.2,0.4-0.7,0.7-0.9c0.5-0.5,1-0.9,1.5-1.3
	c0.6-0.4,0.9-0.8,0.1-1.5c0.5,0,0.8,0,1.1,0.1c0.8,0.2,1.3-0.2,1.4-1c0.1-1.5,0.4-1.8,2-2.1c0.5-0.1,0.9-0.3,1.4-0.4
	c1.1-0.4,2.3-0.7,3.4-1.3c1.4-0.8,3-0.7,4.4-1.1c2.4-0.6,4.7-0.5,7.1-0.1c0.1,0,0.3,0.1,0.4,0.1c2.1-0.1,3.9,1,5.8,1.5
	c1.2,0.3,2.4,0.7,3.6,1.1c0.4,0.2,0.8,0.5,1.1,0.8c1.3,1.3,2.7,2.7,4,4.1c0.5,0.5,0.7,1.2,1.2,1.7c0.5,0.6,1,1.1,1.5,1.7
	c0.7,0.9,1.4,1.7,1.5,3c0,0.7,0.5,1.3,0.7,1.9c0.3,0.8,0.6,1.5,0.9,2.3c0,0.1,0,0.2,0,0.3c-0.3,1-0.3,1.4-0.2,2.3
	c0,0.3-0.1,0.6-0.2,1c0.1,0.2,0.3,0.4,0.5,0.6c0.1,0.1,0.1,0.4,0.1,0.4c-0.7,0.4-0.4,1.1-0.5,1.6c-0.1,0.8-0.1,1.5-0.1,2.3
	c0,0,0,0.1,0,0.1c-0.9,1.2-0.7,2.8-1.5,4.1c-0.6,0.9-0.7,2-1.1,3C65.8,77.8,65.7,79.2,64.1,79.6z"/>
<path d="M471.8,59.2c-0.1-0.1-0.1-0.2-0.2-0.2c-1.1-0.3-1.4-1.2-1.7-2.1c-0.1-0.4-0.2-0.7,0.4-0.7c0.3,0,0.5-0.1,0.8-0.2
	c-0.8-0.3-1.1-0.8-0.9-1.7c0.1-0.2-0.2-0.6-0.3-0.9c0.6-0.1,1.3-0.2,2-0.3c-0.1-0.3-0.2-0.6-0.2-0.8c0.8-0.3,1.5-0.5,2.2-0.7
	c0.3-0.1,0.6,0,0.8,0c0.4,0,0.9,0.2,1.1-0.5c0-0.1,0.5-0.1,0.8-0.2c0.1,0.3,0.2,0.6,0.1,0.8c-0.1,0.4-0.5,0.7-0.6,1.1
	c-0.1,0.7,0.2,1.1,1.2,1.2c1.4,0.2,2.8,0.2,4.2,0.3c0.1,0,0.2,0,0.3-0.1c0-0.1,0-0.1,0-0.2c-0.9-0.1-1.8-0.2-2.8-0.2
	c-0.9,0-1.1-0.2-1.1-1.1c0-0.4-0.2-0.8-0.3-1.3c-0.1-0.5,0.1-0.6,0.6-0.6c0.6,0,1.2-0.2,1.7-0.2c0.6,0,1.3,0.3,1.9,0.4
	c0.4,0.1,0.8,0.2,1.1,0.4c0.2,0.1,0.5,0.1,0.7,0.3c0.2,0.2,0.3,0.4,0.4,0.6c-0.2,0-0.5,0.1-0.7,0.1c-0.5,0-1-0.1-1.4,0
	c-0.6,0.2-0.2,0.7,0,1.1c0.6-0.4,1.1-0.6,1.6,0.2c0.2,0.3,0.7,0.3,1.1,0.5c0-0.1,0.1-0.2,0.1-0.3c0.2-0.6,0.3-0.7,1-0.3
	c0.6,0.4,1.2,0.8,1.4,1.5c0,0.2,0.2,0.4,0.4,0.5c1.3,0.6,1.4,1.8,1.4,3c0,1.1-1.2,3.1-2.7,3.5c-0.7,0.2-1.5,0.2-2.2,0.4
	c-0.3,0.1-0.6,0.2-0.9,0.3c0.1,0.3,0.3,0.6,0.5,1c-1.1,0-2.1,0.3-3.2-0.2c-0.7-0.3-1.4-0.4-2.1,0c0.2,0.2,0.3,0.4,0.6,0.7
	c-0.5,0.1-1,0.3-1.5,0.3c-1.5,0.2-3.1,0.3-4.6,0.8c-1.1,0.3-2.2,1.1-2.6,2.4c0,0.1,0,0.3,0,0.4c0.4,1.2,1.1,2.1,2.2,2.8
	c0.5,0.3,1,0.7,1.6,0.9c0.9,0.3,1.8,0.6,2.7,0.8c1.1,0.2,2.3,0.2,3.4,0.6c2.5,0.8,4.9-0.1,7.3-0.6c0.4-0.1,0.8-0.2,1.2-0.1
	c0.2,0,0.4,0.2,0.6,0.3c0.2,0.1,0.5,0.3,0.7,0.3c0.8-0.2,1.6-0.4,2.3-0.7c0.6-0.3,1.1-0.8,1.7-1.2c0.4-0.3,0.9-0.5,1.3-0.9
	c1.1-1.3,2.3-2.5,2.9-4.1c0.3-0.8,0.7-1.7,1.1-2.4c0.5-0.9,0.3-1.8,0.3-2.8c-0.1-0.9-0.2-1.8-0.2-2.7c-0.1-0.9-0.1-1.9-1.2-2.5
	c0.6,0,1,0,1.4,0c-0.7-0.3-0.7-0.9-0.9-1.5c-0.6-2.2-1.4-4.3-3.2-5.8c-1.9-1.5-3.8-3.1-6.2-3.8c-1.8-0.5-3.6-0.8-5.4-1.1
	c-1.1-0.2-2.3-0.3-3.5-0.3c-0.6,0-1.2,0.1-1.8,0.3c-1.3,0.4-2.5,0.8-3.7,1.4c-1,0.5-1.9,1.1-2.9,1.7c-0.4,0.3-0.7,0.5-1.2,0.3
	c-0.5-0.2-0.5-0.2-1.4,0.6c0.2,0.2,0.3,0.3,0.6,0.6c-1.4,0.2-1.2,1.5-1.8,2.2c-0.6-0.2-0.6-0.2-0.2-0.8c-0.6-0.4-1.3-0.7-1.9-1.1
	c-0.7-0.5-1-1.7-0.6-2.4c0.3-0.6,0.3-1.3,0.9-1.7c0,0,0-0.1,0-0.2c0-0.3-0.1-0.7,0-0.8c0.4-0.4,1-0.6,1.5-0.9
	c0.3-0.2,0.6-0.3,0.9-0.6c0.4-0.3,0.8-0.8,1.3-1.1c1.7-1.1,3.8-1.5,5.6-2.4c0.1-0.1,0.4-0.1,0.4-0.2c0.2-0.9,0.9-0.8,1.6-0.8
	c0.6,0,1.2,0.1,1.8,0.3c0.4,0.1,0.6,0.2,0.8-0.2c0.2-0.8,0.8-1,1.4-0.9c1,0,2,0.1,3,0.2c0.4,0,0.7,0.3,1.1,0.4
	c0.5,0.2,1,0.3,1.5,0.4c0.1,0,0.2,0.1,0.4,0.3c-0.6,0-1.1,0-1.6,0c0.8,0.4,1.6,0.3,2.4,0.2c0.4,0,0.8,0.1,1.2,0.1
	c0.4,0,0.7,0.1,1.1,0.1c0.7,0.1,1.4,0.2,2.1,0.3c0.9,0.2,1.8,0.5,2.7,0.7c1.8,0.4,3.3,1.4,4.6,2.6c1.1,1,2.2,2,3.2,3.1
	c0.9,1,1.8,2.1,2.4,3.3c0.6,1.3,1.3,2.5,1.7,3.9c0.4,1.3,1.4,2.5,2.4,3.6c1,1.1,2.6,1.1,3.9,1.3c1.2,0.2,2.5,0.1,3.8,0.2
	c0.3,0,0.6-0.1,0.9-0.1c0.2,0,0.3,0.2,0.5,0.3c-0.1,0.1-0.3,0.4-0.4,0.4c-0.3,0-0.7,0-1-0.1c-2-0.2-4-0.5-6-0.7c-0.4,0-0.8,0-1.2,0
	c-0.1,0.4-0.2,0.8-0.2,1.2c0,0.9-0.4,1.6-0.8,2.4c-0.1,0.2-0.1,0.6-0.1,0.8c0.2,2.9-0.3,5.7-1.7,8.2c-0.5,0.9-0.8,1.9-1.3,2.8
	c-0.8,1.3-1.5,2.8-2.8,3.7c-0.3,0.2-0.5,0.5-0.7,0.7c-0.5,0.4-1,0.9-1.6,1.2c-1,0.7-2.1,1.5-3.2,2.2c-1,0.6-1.9,1.3-3,1.8
	c-0.4,0.2-1,0.2-1.5,0.3c-0.5,0.1-1,0.3-1.5,0.4c-0.5,0.1-1,0.3-1.4,0.3c-0.8,0.1-1.6,0.2-2.4,0.3c-0.7,0-0.7-0.1-1-0.8
	c0.4-0.1,0.8-0.2,1.2-0.3c-0.4-0.9-0.8-1.1-1.7-1.1c0.1,0.8,0.1,1.5-0.5,2.1c-0.3-0.3-0.9-0.4-0.4-1c0-0.1-0.3-0.4-0.5-0.6
	c-0.2-0.2-0.4-0.3-0.7-0.4c-0.5-0.3-1-0.5-1.5-0.7c-0.4-0.1-0.8-0.2-1.1-0.2c-0.3,0-0.6,0.2-0.9,0.1c-0.9-0.1-1.7-0.3-2.6-0.5
	c-1.1-0.2-2.3-0.4-3.4-0.6c-0.3-0.1-0.7-0.1-1-0.2c-1.5-0.6-3.1-1-4.5-1.8c-1.3-0.8-2.3-2.1-3.5-3.2c-1-0.9-1.4-2.2-1.8-3.4
	c-0.2-0.7-0.1-1.4-0.1-2.1c0-0.5,0-1.1,0.1-1.6c0.3-1.8,1.3-3.2,2.5-4.5c1.2-1.3,2.7-2,4.4-2.4C470.9,60,471.3,59.5,471.8,59.2z
	 M477.1,56.8c-0.4,0-0.9,0.1-0.8,0.7c0.1,0.4-0.1,0.7-0.5,0.8c-0.1,0-0.2,0.2-0.4,0.5c2.1,0.1,4.1,0.2,6.1,0.4
	c0-0.1,0.1-0.2,0.1-0.3c-0.2-0.1-0.4-0.2-0.6-0.3c0-0.7-1-1.3,0-2.2c-1.2-0.2-2.2-0.5-3.2-0.6C477,55.6,476.8,56.1,477.1,56.8z
	 M474,57.8c-0.1,0.6-0.2,1.1-0.3,1.8c0.3,0.1,0.6,0.3,1.1,0.6C474.3,59.2,475.1,58.3,474,57.8z M503.9,55.2c0,0.1,0,0.2,0.1,0.3
	c0.4,0,0.8-0.1,1.2-0.1c0.1,0,0.2-0.2,0.3-0.3c-0.1-0.1-0.2-0.2-0.3-0.2C504.7,54.9,504.3,55.1,503.9,55.2z M489.1,82
	c0-0.1,0.1-0.2,0.1-0.2c-0.3-0.2-0.7-0.3-1-0.6c-0.5-0.4-0.6-0.4-0.8-0.2C488,81.4,488.5,81.7,489.1,82z M504.1,50.3
	c0,0.4,0.1,0.7,0.1,1.2C504.9,50.7,504.9,50.6,504.1,50.3z"/>
<path d="M283.2,87.5c0,0.1,0,0.4-0.1,0.5c-0.9,0.6-1.8,1.1-2.7,1.6c-0.6,0.3-0.6-0.2-0.7-0.6c-0.1,0-0.2,0-0.2,0.1
	c-0.2,0.3-0.3,0.8-0.5,0.8c-1.2,0.2-2.2,0.9-3.4,0.6c-0.2,0-0.4-0.2-0.6-0.3c-0.5-0.1-0.8,0-0.9,0.6c-1.8-0.3-3.6-0.6-5.3-1
	c-0.4-0.1-0.7-0.4-1.1-0.6c-0.8-0.5-1.7-1-2.5-1.5c-0.7-0.4-1.3-0.9-2-1.4c-0.4-0.3-0.9-0.7-1.2-1.1c-0.6-1-1.7-1.5-2-2.6
	c-0.1-0.4-0.5-0.8-0.8-1.2c-0.4-0.5-0.8-1-1.2-1.5c-0.3-0.4-0.4-0.9-0.6-1.4c-0.3-1.4-0.8-2.8-0.5-4.4c0.5-2.7,0.6-5.5,1.4-8.1
	c0.5-1.6,0.9-3.3,2.1-4.6c0.2-0.3,0.5-0.5,0.8-0.7c0.3-0.2,0.7-0.4,0.4-0.9c-0.1-0.2,0.1-0.5,0.3-0.7c1.6-1.7,3.2-3.4,5.5-4.2
	c1.9-0.6,3.8-1.1,5.8-0.9c0.3,0,0.6-0.2,1-0.2c0.8,0,1.5,0,2.3,0.1c0.1,0,0.4,0.1,0.4,0.2c0,0.7,0.5,0.5,0.8,0.4
	c1-0.2,1.9-0.2,2.9,0.3c0.9,0.4,2,0.4,2.9,0.8c2,0.8,4.1,1.5,5.7,3.1c0.4,0.4,0.6,1,0.9,1.5c0.7,1,0.9,2.1,1.2,3.2
	c0.1,0.3,0.3,0.7,0.4,1c1,2.5,1.6,5.1,1,7.9c-0.2,1.1-0.4,2.2-0.7,3.3c-0.1,0.4-0.4,0.7-0.6,1.1c-0.2,0.5-0.3,1.1-0.6,1.6
	c-0.8,1.6-1.5,3.2-2.4,4.7c-0.5,0.9-1.3,1.5-1.9,2.3c-0.3,0.3-0.5,0.8-0.8,1.1C284.8,87,284,87.2,283.2,87.5z M283.6,65.7
	c-0.4,0.1-0.8,0-1.1,0.2c-0.6,0.3-0.7,0-0.8-0.5c0-0.2-0.1-0.4-0.2-0.5c-0.2-0.5-0.5-1.1-0.7-1.6c-0.1-0.2-0.3-0.5-0.3-0.6
	c-0.4,0.3-0.8,0.8-0.9,0.7c-0.6-0.3-1.6-0.3-1.5-1.2c-0.5,0-0.9,0-1.3,0c0-0.1,0-0.1,0-0.2c0.3,0,0.5,0,0.9,0
	c-0.4-0.5-1.3-0.7-1.9-0.5c-0.5,0.2-1.1,0.3-1.5,0.2c-0.8-0.2-1.5-0.1-2.2,0.4c-0.4,0.3-0.9,0.2-1.5,0.4c-0.6,0.5-1.3,1.1-2,1.8
	c-1.3,1.4-2.6,2.8-3.2,4.8c-0.2,0.8-0.5,1.6-0.6,2.5c-0.1,0.7,0.1,1.5,0.1,2.2c0.1,0.6,0.1,1.4,0.4,1.9c0.9,1.7,2.1,3.2,3.6,4.5
	c0.5,0.4,1.2,0.7,1.7,1.1c0.6,0.4,1.1,0.9,1.8,1.1c2,0.5,3.9,0.6,5.7-0.6c1.4-0.9,2.6-2.1,3.5-3.5c0.6-1,1.6-1.8,1.6-3.1
	c0-0.2,0.2-0.3,0.3-0.4c0.1-0.8,0.3-1.6,0.4-2.3c0.1-0.8-0.2-1.7,0.5-2.3c-0.2-0.2-0.5-0.3-0.6-0.5c-0.1-0.6-0.2-1.2-0.3-1.8
	C283.5,67.1,283.5,66.4,283.6,65.7z M277.5,84.9c-0.2,0.4-0.4,0.6-0.5,0.8c-0.1,0.2,0,0.5,0,0.7c0,0,0.3,0.1,0.4,0
	c0.1-0.2,0.3-0.4,0.3-0.6C277.7,85.6,277.6,85.3,277.5,84.9z"/>
<path d="M32.4,94.2c0.7-0.4,1.1-0.8,0.9-1.6c0-0.1,0.5-0.4,0.7-0.5c0.7-0.5,1.5-0.9,2.3-1.4c-0.1,1-0.7,1.7-1.4,2.3
	C34.2,93.5,33.8,94.6,32.4,94.2z"/>
<path d="M462.2,52.9c1.3,0,2.6,0,4,0c0,0.1,0,0.1,0,0.2c-1.3,0-2.6,0-3.9,0C462.3,53.1,462.3,53,462.2,52.9z"/>
<path d="M484.5,63.1c0.8-0.1,1.6-0.2,2.4-0.3c0,0.1,0,0.2,0,0.2c-0.7,0.5-1.6,0.4-2.4,0.3C484.5,63.3,484.5,63.2,484.5,63.1z"/>
<path d="M300,79.5c0.7,0.7,1.4,1.4,2.1,2c-0.1,0.1-0.1,0.1-0.2,0.2c-0.7-0.6-1.5-1.3-2.2-1.9C299.8,79.7,299.9,79.6,300,79.5z"/>
<path d="M354.3,61.3c-0.3,0-0.6,0.1-0.9,0.1c0-0.1,0-0.4,0-0.4c0.3,0,0.6-0.1,0.8-0.1C354.3,61.1,354.3,61.2,354.3,61.3z"/>
<g>
	<path d="M194,125.8c0.1-1.1,0.6-1.8,1.6-2.2c-1.3,0-2.1,0.1-2.5,0.1v-0.7h5.3c0,0,0,0,0-0.1c0-0.3-0.1-0.6-0.2-0.8
		c-0.3-0.5-0.6-0.7-1.1-0.7c-0.5,0-0.8,0.3-1,0.7c-0.1,0.4-0.4,0.6-0.8,0.6c-0.1,0-0.1,0-0.2,0c-0.4-0.1-0.5-0.3-0.5-0.7
		c0-0.2,0.1-0.4,0.2-0.6c0.3-0.5,1-0.8,1.8-0.8c0.4,0,0.9,0.1,1.2,0.3c0.8,0.4,1.2,1.2,1.2,2.4v0.3h-1.6c-0.3,0-0.6,0-0.9,0.1
		c-0.9,0.2-1.4,0.7-1.4,1.4c0,0.2,0.1,0.4,0.2,0.7c0.3,0.6,1,1,2,1c0.3,0,0.5,0,0.8-0.1c0.8-0.2,1.2-0.6,1.2-1.2v-0.4h0.5v0.4
		c0,0.8,0.7,1.3,2,1.3c0.4,0,0.8-0.1,1.1-0.2c0.8-0.3,1.2-0.8,1.2-1.6c0-1-0.8-1.6-2.4-1.6c-0.6,0-1.2,0.1-1.9,0.2c0,0,0-0.1,0-0.1
		s0-0.1,0-0.1c0-0.5,0.1-1,0.3-1.4c0.4-0.9,1.1-1.3,2.1-1.3c0.2,0,0.4,0,0.6,0.1c0.9,0.2,1.3,0.7,1.3,1.5c-0.1,0.4-0.2,0.8-0.6,1
		c0.2,0.1,0.3,0.2,0.5,0.3c0.7,0.6,1,1.3,1,2.2c0,0.6-0.1,1.2-0.4,1.7c-0.5,1-1.5,1.5-2.9,1.5c-1.2,0-2-0.5-2.5-1.6
		c-0.4,1.1-1.3,1.6-2.5,1.6c-0.7,0-1.3-0.2-1.9-0.7c-0.7-0.6-1.1-1.4-1.1-2.3C193.9,126,193.9,125.9,194,125.8z M201.6,122.9
		c0.6,0,1.1,0.1,1.5,0.2c0.2-0.2,0.3-0.4,0.3-0.7c0-0.1,0-0.2,0-0.2c-0.1-0.4-0.6-0.6-1.3-0.6c-0.1,0-0.2,0-0.2,0
		c-0.9,0.1-1.3,0.6-1.4,1.5C200.7,122.9,201.1,122.9,201.6,122.9z"/>
	<path d="M206.6,125.8c0-0.9,0.4-1.6,1.1-2.2c0.5-0.4,1.1-0.5,1.7-0.5c0.9,0,1.7,0.4,2.2,1.1c0.4,0.5,0.6,1,0.6,1.6
		c0,0.9-0.4,1.6-1.1,2.2c-0.5,0.4-1.1,0.5-1.7,0.5c-0.9,0-1.7-0.4-2.2-1.1C206.8,127,206.6,126.4,206.6,125.8z M207.5,125.4
		c0,0.7,0.3,1.2,0.9,1.5c0.3,0.2,0.6,0.3,1,0.3c0.7,0,1.2-0.3,1.6-0.9c0.2-0.3,0.3-0.6,0.3-0.9c0-0.7-0.3-1.2-0.9-1.5
		c-0.3-0.2-0.6-0.3-1-0.3c-0.7,0-1.2,0.3-1.6,0.9C207.6,124.8,207.5,125.1,207.5,125.4z"/>
	<path d="M214.1,124.5c0.5-0.9,1.5-1.3,2.9-1.3h1.1v-0.1c0-0.3-0.1-0.6-0.2-0.8c-0.2-0.5-0.6-0.8-1.1-0.8c-0.5,0-0.9,0.2-1,0.7
		s-0.4,0.7-0.8,0.7c-0.1,0-0.1,0-0.2,0c-0.4-0.1-0.6-0.3-0.6-0.7c0-0.2,0.1-0.4,0.2-0.6c0.3-0.5,0.9-0.8,1.8-0.8
		c0.3,0,0.6,0,0.9,0.1c1.1,0.3,1.7,1.2,1.7,2.6v0.2h-1.6c-0.4,0-0.8,0-1.1,0.1c-0.8,0.2-1.2,0.7-1.2,1.3c0.1,1,1.3,1.6,3.5,1.6
		c0.8,0,1.5-0.1,2.1-0.3c1.6-0.5,2.3-1.7,2.3-3.5c0-1.1-0.3-2.1-0.9-2.9c-0.8-1.2-2-1.7-3.4-1.7c-1.5,0-2.7,0.5-3.6,1.6h-0.7
		c1-1.4,2.4-2.1,4.2-2.1c1.4,0,2.6,0.5,3.6,1.5c1.1,1.1,1.7,2.6,1.7,4.4c0,1.2-0.3,2.2-0.8,3.1c-0.9,1.5-2.5,2.3-4.6,2.3
		c-0.8,0-1.6-0.1-2.2-0.3c-1.6-0.5-2.3-1.5-2.3-2.9C213.7,125.3,213.9,124.9,214.1,124.5z"/>
	<path d="M225.4,127.1c0.5-1.5,1.3-2.9,2.4-4.1c0.2-0.2,0.3-0.5,0.3-0.7c0-0.1,0-0.1,0-0.2c0-0.4-0.2-0.6-0.5-0.6
		c-0.3,0-0.5,0.2-0.6,0.6c0,0.8-0.3,1.2-0.9,1.2c-0.1,0-0.1,0-0.2,0c-0.4-0.1-0.6-0.4-0.6-0.9c0-0.3,0.1-0.6,0.3-0.9
		c0.3-0.6,0.8-0.8,1.5-0.8c0.2,0,0.4,0,0.6,0.1c0.6,0.2,0.9,0.7,0.9,1.4v0.1c1-1.1,2.4-1.7,4.2-1.7c0.6,0,1.2,0.1,1.7,0.3v-5.1
		c0.2,0.2,0.6,0.4,1.1,0.6c0.3,0.1,0.5,0.3,0.7,0.3c0.8,0.4,1.2,1,1.2,1.8c0,0.2-0.1,0.5-0.2,0.7c-0.3,0.5-0.7,0.8-1.3,0.8
		c-0.3,0-0.6-0.1-0.9-0.2v1.3c0.2,0.1,0.5,0.3,0.7,0.4c1.2,0.9,1.7,2.2,1.7,3.9c0,0.7-0.1,1.4-0.4,2c-0.5,1.1-1.3,1.6-2.5,1.6
		c-0.4,0-0.8-0.1-1.2-0.3v-0.6c0.3,0.1,0.5,0.2,0.8,0.2c0.3,0,0.5-0.1,0.8-0.3c0.5-0.4,0.7-1.1,0.7-1.9c0-1-0.3-1.9-0.8-2.6
		c-0.8-1.1-2-1.6-3.5-1.6c-1.2,0-2.2,0.4-2.9,1.1c0.4-0.2,0.9-0.3,1.6-0.3c0.6,0,1.1,0.1,1.6,0.3c1.2,0.5,1.8,1.4,1.8,2.8
		c0,0.6-0.2,1.2-0.5,1.7c-0.6,1-1.6,1.4-2.9,1.4c-0.5,0-0.9,0-1.3-0.1c-0.6-0.1-1.1-0.5-1.6-1c-0.3-0.3-0.6-0.5-0.8-0.5
		c-0.3,0-0.6,0.5-0.9,1.3l-0.5-0.3C225.1,128.1,225.3,127.6,225.4,127.1z M227,126.2c0.2,0,0.4,0.1,0.8,0.2c0.8,0.3,1.4,0.4,2,0.4
		c1.8,0,2.7-0.6,2.7-1.7c0-0.3-0.1-0.5-0.3-0.8c-0.4-0.6-1.1-0.9-2-0.9c-1,0-1.8,0.2-2.4,0.7c-0.5,0.6-0.9,1.4-1.4,2.3
		C226.5,126.3,226.7,126.2,227,126.2z M235.7,119.4c0.1,0,0.2,0,0.3,0c0.4-0.1,0.6-0.4,0.6-0.9c0-0.3-0.1-0.5-0.3-0.8
		c-0.2-0.2-0.6-0.5-1.3-1v2.6C235.3,119.4,235.5,119.4,235.7,119.4z"/>
	<path d="M239.3,125.8c0.1-1.1,0.6-1.8,1.6-2.2c-1.3,0-2.1,0.1-2.5,0.1v-0.7h5.3c0,0,0,0,0-0.1c0-0.3-0.1-0.6-0.2-0.8
		c-0.3-0.5-0.6-0.7-1.1-0.7c-0.5,0-0.8,0.3-1,0.7c-0.1,0.4-0.4,0.6-0.8,0.6c-0.1,0-0.1,0-0.2,0c-0.4-0.1-0.5-0.3-0.5-0.7
		c0-0.2,0.1-0.4,0.2-0.6c0.3-0.5,1-0.8,1.8-0.8c0.4,0,0.9,0.1,1.2,0.3c0.8,0.4,1.2,1.2,1.2,2.4v0.3h-1.6c-0.3,0-0.6,0-0.9,0.1
		c-0.9,0.2-1.4,0.7-1.4,1.4c0,0.2,0.1,0.4,0.2,0.7c0.3,0.6,1,1,2,1c0.3,0,0.5,0,0.8-0.1c0.8-0.2,1.2-0.6,1.2-1.2v-0.4h0.5v0.4
		c0,0.8,0.7,1.3,2,1.3c0.4,0,0.8-0.1,1.1-0.2c0.8-0.3,1.2-0.8,1.2-1.6c0-1-0.8-1.6-2.4-1.6c-0.6,0-1.2,0.1-1.9,0.2c0,0,0-0.1,0-0.1
		s0-0.1,0-0.1c0-0.5,0.1-1,0.3-1.4c0.4-0.9,1.1-1.3,2.1-1.3c0.2,0,0.4,0,0.6,0.1c0.9,0.2,1.3,0.7,1.3,1.5c-0.1,0.4-0.2,0.8-0.6,1
		c0.2,0.1,0.3,0.2,0.5,0.3c0.7,0.6,1,1.3,1,2.2c0,0.6-0.1,1.2-0.4,1.7c-0.5,1-1.5,1.5-2.9,1.5c-1.2,0-2-0.5-2.5-1.6
		c-0.4,1.1-1.3,1.6-2.5,1.6c-0.7,0-1.3-0.2-1.9-0.7c-0.7-0.6-1.1-1.4-1.1-2.3C239.3,126,239.3,125.9,239.3,125.8z M246.9,122.9
		c0.6,0,1.1,0.1,1.5,0.2c0.2-0.2,0.3-0.4,0.3-0.7c0-0.1,0-0.2,0-0.2c-0.1-0.4-0.6-0.6-1.3-0.6c-0.1,0-0.2,0-0.2,0
		c-0.9,0.1-1.3,0.6-1.4,1.5C246,122.9,246.4,122.9,246.9,122.9z"/>
	<path d="M252,124.9c0-1.9,0.9-3.2,2.7-4c0,0,0.1,0,0.1,0c0.2-0.1,0.5-0.2,0.9-0.4c1.3-0.5,2.3-1,3-1.5c0,0,0,0,0,0
		c0.3-0.2,0.6-0.6,1.1-1.2c0.4-0.4,0.7-0.7,1.1-0.7c0.4,0,0.6,0.1,0.6,0.4c0,0,0,0.1,0,0.1c0,0.6-0.5,1.1-1.6,1.7c0,0,0,0,0,0
		c-0.8,0.5-1.8,0.9-2.9,1.1c0,0,0,0-0.1,0c0.9,0,1.8,0.4,2.5,1.2c0.1,0.1,0.1,0.1,0.2,0.2c0.7,0.8,1,1.7,1,2.7
		c0,1.3-0.5,2.4-1.5,3.3c-0.9,0.7-1.9,1.1-3.1,1.1c-1.4,0-2.5-0.5-3.3-1.5C252.3,126.8,252,125.9,252,124.9z M252.9,124.2
		c0,1,0.4,1.7,1.3,2.2c0.5,0.3,1.1,0.4,1.8,0.4c1.4,0,2.4-0.5,3-1.4c0.3-0.5,0.5-1.1,0.5-1.7c0-1.1-0.5-1.8-1.4-2.3
		c-0.5-0.2-1-0.3-1.5-0.3c-1,0-1.8,0.3-2.6,1C253.2,122.7,252.9,123.4,252.9,124.2z"/>
	<path d="M266.8,126.2c0.1,0,0.2,0,0.3,0c0.3-0.1,0.7-0.3,1-0.8c0.6-0.8,1.1-1.4,1.4-1.7c0.2-0.2,0.3-0.5,0.3-0.9
		c0-0.1,0-0.3-0.1-0.4c-0.1-0.5-0.4-0.7-0.8-0.7c-0.4,0-0.7,0.3-0.8,0.7c-0.1,0.6-0.3,1-0.8,1c-0.1,0-0.1,0-0.2,0
		c-0.4-0.1-0.6-0.4-0.6-0.9c0-0.3,0.1-0.5,0.2-0.8c0.3-0.7,0.9-1,1.7-1c0.3,0,0.6,0.1,0.8,0.2c0.7,0.3,1.1,0.9,1.1,1.9
		c0,0.1,0,0.1,0,0.1c0.1-0.2,0.3-0.3,0.5-0.5c-0.1-0.5-0.2-1-0.2-1.5c0-1.2,0.3-2.2,0.8-3c0.9-1.2,2.2-1.9,4.1-1.9
		c0.9,0,1.6,0.1,2.3,0.4c1.3,0.5,1.9,1.5,1.9,2.8c0,1.1-0.5,1.9-1.5,2.3c0.1,0,0.1,0.1,0.2,0.1c1.1,0.9,1.7,2.2,1.7,3.8
		c0,0.9-0.2,1.7-0.7,2.4c-0.6,0.8-1.4,1.2-2.4,1.2c-0.5,0-1-0.1-1.3-0.3v-0.6c0.2,0.1,0.5,0.2,0.9,0.2c0.2,0,0.4-0.1,0.7-0.2
		c0.6-0.4,0.8-1,0.8-2c0-1.1-0.4-2-1.1-2.8c-0.9-0.9-2-1.3-3.4-1.3c-0.1,0-0.2,0-0.2,0c-1.2,0.1-2.2,0.4-2.9,1.1
		c0.4-0.2,0.9-0.2,1.5-0.2c0.6,0,1.2,0.2,1.7,0.5c0.8,0.5,1.2,1.3,1.2,2.2c0,0.7-0.2,1.3-0.6,1.8c-0.7,1-2,1.4-3.7,1.4
		c-1,0-1.9-0.2-2.6-0.5c-1.3-0.5-2.1-1.4-2.2-2.7C266.2,126.1,266.5,126.2,266.8,126.2z M270.4,126.8c0.7,0,1.4-0.1,2-0.3
		c1-0.3,1.4-0.9,1.4-1.6c0-0.1,0-0.3-0.1-0.4c-0.2-0.6-0.8-0.9-1.7-0.9c-0.7,0-1.3,0.1-1.8,0.4c-0.4,0.2-0.9,0.7-1.3,1.3
		c-0.4,0.6-0.8,1-1,1.2C268.5,126.7,269.3,126.8,270.4,126.8z M271.3,122c1.3-0.9,2.6-1.4,4-1.4c0.9,0,1.7,0.2,2.4,0.6
		c0.1,0,0.2,0,0.3,0c0.6-0.2,0.9-0.6,0.9-1.2c0-0.4-0.2-0.7-0.5-1.1c-0.6-0.6-1.5-0.9-2.8-0.9c-1,0-2,0.2-2.7,0.6
		c-1.1,0.6-1.6,1.5-1.6,2.7C271.3,121.6,271.3,121.8,271.3,122z"/>
	<path d="M291.1,128.6L291.1,128.6c0.2-0.1,0.4-0.1,0.7-0.1c0.2,0,0.4,0,0.5-0.1c0.5-0.3,0.7-0.9,0.7-1.9c0-1.2-0.4-2.2-1.1-3
		c-0.9-0.9-2.1-1.3-3.6-1.3c-1.3,0-2.3,0.3-3,1c0.4-0.1,1-0.2,1.7-0.2c0.8,0,1.6,0.2,2.2,0.5c1.3,0.6,1.9,1.7,1.9,3.2
		c0,0.4-0.1,0.7-0.2,1c-0.4,1-1.1,1.4-2.1,1.4c-0.9,0-1.6-0.4-2-1.2c-0.4,0.8-1,1.2-1.8,1.2c-0.2,0-0.5,0-0.7-0.1
		c-0.4-0.1-0.7-0.4-1-0.9c-0.2-0.3-0.4-0.5-0.6-0.5c-0.4,0-0.7,0.4-0.8,1.2l-0.5-0.2c0-0.3,0.1-0.6,0.2-0.9c0.3-1.2,0.8-2.3,1.5-3.2
		c0.2-0.3,0.6-0.8,1.2-1.4c0.3-0.3,0.4-0.6,0.4-1c0-0.4-0.2-0.7-0.7-0.7c-0.4,0-0.6,0.2-0.7,0.5c0,0.1,0,0.1,0,0.2
		c-0.1,0.3-0.1,0.5-0.2,0.6c-0.2,0.3-0.4,0.5-0.8,0.5c-0.1,0-0.2,0-0.3,0c-0.3-0.1-0.5-0.4-0.5-0.8c0-0.4,0.1-0.7,0.3-1
		c0.4-0.6,1-0.8,1.7-0.8c0.3,0,0.5,0,0.8,0.1c0.6,0.3,0.9,0.7,0.9,1.3c0,0.1,0,0.2,0,0.3c0.1-0.1,0.2-0.2,0.3-0.3
		c1.2-1,2.6-1.5,4.2-1.5c1.3,0,2.3,0.4,3.2,1.1c1.1,0.9,1.6,2.1,1.6,3.6c0,0.8-0.2,1.6-0.6,2.3c-0.5,1-1.3,1.5-2.2,1.5
		c-0.3,0-0.5,0-0.8,0.1v0c-0.4,0.2-0.6,0.5-0.6,0.9c0,0.1,0,0.3,0.1,0.4c0.3,0.5,0.9,0.7,1.8,0.7c0.3,0,0.7,0,1-0.1
		c0.7-0.2,1.1-0.6,1.1-1.2c0,0,0,0,0-0.1c0-0.1,0-0.1,0-0.1h0.6c0,0.1,0,0.3,0,0.7c0,0.4-0.1,0.7-0.3,1.1c-0.5,0.8-1.3,1.3-2.4,1.3
		c-0.5,0-1-0.1-1.4-0.3c-0.8-0.4-1.2-1-1.2-1.8C289.7,129.6,290.2,129,291.1,128.6z M283.4,126.3c0.2,0,0.3,0,0.6,0.1
		c0.5,0.2,0.9,0.3,1.2,0.3c0.1,0,0.2,0,0.3,0c0.8-0.1,1.1-0.6,1.1-1.5v0h0.6v0c0,0.3,0,0.5,0.1,0.8c0.2,0.5,0.6,0.8,1.3,0.8
		c0.3,0,0.5-0.1,0.7-0.2c0.5-0.3,0.7-0.7,0.7-1.2c0-0.2-0.1-0.5-0.2-0.7c-0.4-0.8-1.3-1.2-2.8-1.2c-1,0-1.8,0.1-2.3,0.3
		c-0.3,0.3-0.6,0.7-1,1.1c-0.3,0.5-0.6,1-0.9,1.6C282.9,126.4,283.2,126.3,283.4,126.3z"/>
	<path d="M296.3,127.1c0.5-1.5,1.3-2.9,2.4-4.1c0.2-0.2,0.3-0.5,0.3-0.7c0-0.1,0-0.1,0-0.2c0-0.4-0.2-0.6-0.5-0.6
		c-0.3,0-0.5,0.2-0.6,0.6c0,0.8-0.3,1.2-0.9,1.2c-0.1,0-0.1,0-0.2,0c-0.4-0.1-0.6-0.4-0.6-0.9c0-0.3,0.1-0.6,0.3-0.9
		c0.3-0.6,0.8-0.8,1.5-0.8c0.2,0,0.4,0,0.6,0.1c0.6,0.2,0.9,0.7,0.9,1.4v0.1c1.1-1.1,2.4-1.7,4.2-1.7c1.2,0,2.1,0.3,3,1
		c1.2,0.9,1.7,2.2,1.7,3.9c0,0.6-0.1,1.1-0.2,1.6c-0.4,1.3-1.3,2-2.6,2c-0.3,0-0.5,0-0.7,0.1c-0.4,0.2-0.7,0.5-0.7,0.9
		c0,0.2,0,0.3,0.1,0.5c0.3,0.5,0.9,0.7,1.7,0.7c0.4,0,0.7,0,1-0.1c0.7-0.2,1.1-0.6,1.1-1.2c0,0,0,0,0-0.1c0-0.1,0-0.1,0-0.1h0.6
		c0,0.2,0.1,0.4,0.1,0.7c0,0.4-0.1,0.7-0.3,1.1c-0.5,0.9-1.3,1.3-2.5,1.3c-0.5,0-0.9-0.1-1.4-0.3c-0.8-0.4-1.2-1-1.2-1.8
		c0-0.2,0-0.3,0.1-0.5c0.2-0.7,0.6-1.2,1.2-1.4c0,0,0.2-0.1,0.7-0.2c0.2,0,0.4-0.1,0.6-0.3c0.5-0.4,0.7-1.1,0.7-2
		c0-1-0.3-1.9-0.8-2.6c-0.8-1.1-2-1.6-3.5-1.6c-1.2,0-2.2,0.4-2.9,1.1c0.4-0.2,0.9-0.3,1.6-0.3c0.6,0,1.1,0.1,1.6,0.3
		c1.2,0.5,1.8,1.4,1.8,2.8c0,0.6-0.2,1.2-0.5,1.7c-0.6,1-1.6,1.4-2.9,1.4c-0.5,0-0.9,0-1.3-0.1c-0.6-0.1-1.1-0.5-1.6-1
		c-0.3-0.3-0.6-0.5-0.8-0.5c-0.3,0-0.6,0.5-0.9,1.3l-0.5-0.3C296,128.1,296.2,127.6,296.3,127.1z M297.9,126.2
		c0.2,0,0.4,0.1,0.8,0.2c0.8,0.3,1.4,0.4,2,0.4c1.8,0,2.7-0.6,2.7-1.7c0-0.3-0.1-0.5-0.3-0.8c-0.4-0.6-1.1-0.9-2-0.9
		c-1,0-1.8,0.2-2.4,0.7c-0.5,0.6-0.9,1.4-1.4,2.3C297.4,126.3,297.6,126.2,297.9,126.2z"/>
	<path d="M310.2,124.5c0.5-0.9,1.5-1.3,2.9-1.3h1.1v-0.1c0-0.3-0.1-0.6-0.2-0.8c-0.2-0.5-0.6-0.8-1.1-0.8c-0.5,0-0.9,0.2-1,0.7
		c-0.2,0.4-0.4,0.7-0.8,0.7c-0.1,0-0.1,0-0.2,0c-0.4-0.1-0.6-0.3-0.6-0.7c0-0.2,0.1-0.4,0.2-0.6c0.3-0.5,0.9-0.8,1.8-0.8
		c0.3,0,0.6,0,0.9,0.1c1.1,0.3,1.7,1.2,1.7,2.6v0.2h-1.6c-0.4,0-0.8,0-1.1,0.1c-0.8,0.2-1.2,0.7-1.2,1.3c0.1,1,1.3,1.6,3.5,1.6
		c0.8,0,1.5-0.1,2.1-0.3c1.6-0.5,2.3-1.7,2.3-3.5c0-1.1-0.3-2.1-0.9-2.9c-0.8-1.2-2-1.7-3.4-1.7c-1.5,0-2.7,0.5-3.6,1.6h-0.7
		c1-1.4,2.4-2.1,4.2-2.1c1.4,0,2.6,0.5,3.6,1.5c1.1,1.1,1.7,2.6,1.7,4.4c0,1.2-0.3,2.2-0.8,3.1c-0.9,1.5-2.5,2.3-4.6,2.3
		c-0.8,0-1.6-0.1-2.2-0.3c-1.6-0.5-2.3-1.5-2.3-2.9C309.8,125.3,309.9,124.9,310.2,124.5z"/>
</g>
</svg>
